<svg width="480" height="70" viewBox="0 0 480 70" fill="none" xmlns="http://www.w3.org/2000/svg">
<path d="M479.5 0.5V69.5H0.5V0.5H479.5Z" fill="#CACACA" stroke="white"/>
<rect x="11" y="9" width="459" height="51" fill="black"/>
<mask id="path-3-outside-1_4153_2892" maskUnits="userSpaceOnUse" x="18" y="26" width="390" height="18" fill="black">
<rect fill="white" x="18" y="26" width="390" height="18"/>
<path d="M27.082 40.018H21.322V38.578H27.082V40.018ZM28.522 38.578H27.082V37.138H28.522V38.578ZM28.522 29.938H27.082V28.498H28.522V29.938ZM27.082 28.498H21.322V27.058H27.082V28.498ZM21.322 38.578H19.9V28.498H21.322V38.578ZM31.7634 40H30.3414V38.578H31.7634V40ZM31.7634 32.818H30.3414V31.378H31.7634V32.818ZM36.4378 34.258H34.9978V31.378H36.4378V34.258ZM34.9978 31.378H33.5758V27.058H34.9978V31.378ZM37.8778 37.138H36.4378V34.258H37.8778V37.138ZM39.3178 40H37.8778V37.138H39.3178V40ZM43.9964 34.258H42.5564V31.378H43.9964V34.258ZM42.5564 31.378H41.1344V27.058H42.5564V31.378ZM45.4364 37.138H43.9964V34.258H45.4364V37.138ZM46.8764 40H45.4364V37.138H46.8764V40ZM50.115 28.498V32.818H55.875V34.258H50.115V40H48.693V27.058H55.875V28.498H50.115ZM57.315 32.818H55.875V28.498H57.315V32.818ZM67.7564 40H66.3164V34.258H67.7564V40ZM60.5564 32.818H66.3164V34.258H60.5564V40H59.1344V27.058H66.3164V28.498H60.5564V32.818ZM67.7564 32.818H66.3164V28.498H67.7564V32.818ZM70.9978 38.578H69.5758V28.498H70.9978V38.578ZM76.7578 40.018H70.9978V38.578H76.7578V40.018ZM78.1978 38.578H76.7578V28.498H78.1978V38.578ZM76.7578 28.498H70.9978V27.058H76.7578V28.498ZM84.3192 40.018H81.4392V38.578H84.3192V40.018ZM85.7592 38.578H84.3192V27.058H85.7592V38.578ZM81.4392 38.578H80.0172V35.698H81.4392V38.578ZM94.7578 28.498H88.9978V32.818H93.3178V34.258H88.9978V38.578H94.7578V40H87.5758V27.058H94.7578V28.498ZM103.758 40.018H97.9978V38.578H103.758V40.018ZM105.198 38.578H103.758V37.138H105.198V38.578ZM105.198 29.938H103.758V28.498H105.198V29.938ZM103.758 28.498H97.9978V27.058H103.758V28.498ZM97.9978 38.578H96.5758V28.498H97.9978V38.578ZM107.017 27.058H114.199V28.498H111.337V40H109.879V28.498H107.017V27.058ZM124.639 40H116.017V38.578H124.639V40ZM130.761 34.258H129.321V31.378H130.761V34.258ZM127.881 28.498H129.321V31.378H127.881V40H126.459V27.058H127.881V28.498ZM133.641 27.058H135.081V40H133.641V38.578H132.201V35.698H133.641V27.058ZM132.201 35.698H130.761V34.258H132.201V35.698ZM142.642 29.938H141.202V27.058H142.642V29.938ZM146.962 40H145.522V37.138H146.962V40ZM144.082 32.818H142.642V29.938H144.082V32.818ZM138.322 40H136.9V37.138H138.322V40ZM144.082 32.818H145.522V37.138H138.322V32.818H139.762V35.698H144.082V32.818ZM141.202 32.818H139.762V29.938H141.202V32.818ZM154.525 38.578H153.103V35.698H154.525V38.578ZM150.205 29.938H151.645V32.818H150.205V40H148.783V27.058H150.205V29.938ZM155.965 35.698H154.525V32.818H155.965V35.698ZM157.405 27.058H158.845V40H157.405V32.818H155.965V29.938H157.405V27.058ZM153.085 35.698H151.645V32.818H153.085V35.698ZM167.848 28.498H162.088V32.818H166.408V34.258H162.088V38.578H167.848V40H160.666V27.058H167.848V28.498ZM172.546 40.126H171.106V38.686H172.546V40.126ZM171.106 41.548H169.666V40.126H171.106V41.548ZM173.986 38.686H172.546V37.228H173.986V38.686ZM175.408 34.366H176.848V35.806H175.426V37.228H173.968V35.806H175.408V34.384H173.968V32.944H175.408V34.366ZM173.968 32.944H172.528V31.486H173.968V32.944ZM171.106 30.064H172.528V31.486H171.088V30.064H169.666V28.624H171.106V30.064ZM188.345 32.818H184.025V31.36H188.345V32.818ZM184.025 38.578H182.603V35.68H184.025V38.578ZM188.345 32.818H189.785V40H184.025V38.578H188.345V35.68H184.025V34.258H188.345V32.818ZM193.025 37.138H191.603V31.36H193.025V37.138ZM195.905 37.138H194.465V34.258H195.905V37.138ZM194.465 40H193.025V37.138H194.465V40ZM200.225 40H198.785V37.138H200.225V40ZM201.665 37.138H200.225V31.36H201.665V37.138ZM197.345 34.258H195.905V31.36H197.345V34.258ZM198.785 37.138H197.345V34.258H198.785V37.138ZM209.228 40.018H204.908V38.578H209.228V40.018ZM210.668 38.578H209.228V37.138H210.668V38.578ZM209.228 32.818H204.908V31.378H209.228V32.818ZM210.668 35.698H204.908V38.578H203.486V32.818H204.908V34.258H209.228V32.818H210.668V35.698ZM218.228 38.578H216.806V37.138H218.228V38.578ZM216.788 37.138H215.348V35.698H216.788V37.138ZM213.908 38.578H212.486V37.138H213.908V38.578ZM216.806 40.018H213.908V38.578H216.806V40.018ZM215.348 35.698H213.908V34.258H215.348V35.698ZM218.228 34.258H216.806V32.818H218.228V34.258ZM216.806 32.818H213.908V31.378H216.806V32.818ZM213.908 34.258H212.486V32.818H213.908V34.258ZM225.787 40.018H221.467V38.578H225.787V40.018ZM221.467 38.578H220.045V32.818H221.467V38.578ZM225.787 32.818H221.467V31.378H225.787V32.818ZM227.227 38.578H225.787V32.818H227.227V38.578ZM234.787 40.018H233.365V32.818H234.787V40.018ZM229.045 31.378H233.365V32.818H230.467V40H229.045V31.378ZM239.107 40.018H237.667V32.818H239.107V40.018ZM237.667 32.818H234.787V31.378H237.667V32.818ZM246.669 40.018H242.349V38.578H246.669V40.018ZM248.109 38.578H246.669V37.138H248.109V38.578ZM246.669 32.818H242.349V31.378H246.669V32.818ZM248.109 35.698H242.349V38.578H240.927V32.818H242.349V34.258H246.669V32.818H248.109V35.698ZM249.927 35.23H257.109V36.652H249.927V35.23ZM264.652 40.018H260.332V38.578H264.652V40.018ZM260.332 38.578H258.91V32.818H260.332V38.578ZM264.652 32.818H260.332V31.378H264.652V32.818ZM266.092 38.578H264.652V32.818H266.092V38.578ZM269.332 32.818V38.578H273.652V40H269.332V42.88H267.91V31.378H273.652V32.818H269.332ZM275.092 38.578H273.652V32.818H275.092V38.578ZM282.652 40.018H278.332V38.578H282.652V40.018ZM284.092 38.578H282.652V37.138H284.092V38.578ZM282.652 32.818H278.332V31.378H282.652V32.818ZM284.092 35.698H278.332V38.578H276.91V32.818H278.332V34.258H282.652V32.818H284.092V35.698ZM287.332 31.378V32.818H288.772V34.258H287.332V40H285.91V31.378H287.332ZM293.092 40.018H291.652V32.818H293.092V40.018ZM291.652 32.818H288.772V31.378H291.652V32.818ZM300.652 38.578H299.23V37.138H300.652V38.578ZM299.212 37.138H297.772V35.698H299.212V37.138ZM296.332 38.578H294.91V37.138H296.332V38.578ZM299.23 40.018H296.332V38.578H299.23V40.018ZM297.772 35.698H296.332V34.258H297.772V35.698ZM300.652 34.258H299.23V32.818H300.652V34.258ZM299.23 32.818H296.332V31.378H299.23V32.818ZM296.332 34.258H294.91V32.818H296.332V34.258ZM308.21 40.018H303.89V38.578H308.21V40.018ZM303.89 38.578H302.468V32.818H303.89V38.578ZM308.21 32.818H303.89V31.378H308.21V32.818ZM309.65 38.578H308.21V32.818H309.65V38.578ZM315.788 40.018H312.89V38.578H315.788V40.018ZM312.89 38.578H311.468V31.378H312.89V38.578ZM317.21 31.378H318.65V40H317.21V38.578H315.77V37.138H317.21V31.378ZM320.468 31.36H323.33V32.818H321.89V40H320.468V31.36ZM332.326 38.578H330.886V37.138H332.326V38.578ZM326.566 38.578H325.144V32.818H326.566V38.578ZM330.886 40.018H326.566V38.578H330.886V40.018ZM330.886 32.818H326.566V31.378H330.886V32.818ZM332.326 34.258H330.886V32.818H332.326V34.258ZM339.886 40.018H335.566V38.578H339.886V40.018ZM341.326 38.578H339.886V37.138H341.326V38.578ZM339.886 32.818H335.566V31.378H339.886V32.818ZM341.326 35.698H335.566V38.578H334.144V32.818H335.566V34.258H339.886V32.818H341.326V35.698ZM343.144 35.23H350.326V36.652H343.144V35.23ZM353.549 32.818V38.578H357.869V40H353.549V42.88H352.127V31.378H357.869V32.818H353.549ZM359.309 38.578H357.869V32.818H359.309V38.578ZM361.127 31.36H363.989V32.818H362.549V40H361.127V31.36ZM371.544 40.018H367.224V38.578H371.544V40.018ZM367.224 38.578H365.802V32.818H367.224V38.578ZM371.544 32.818H367.224V31.378H371.544V32.818ZM372.984 38.578H371.544V32.818H372.984V38.578ZM376.224 42.88H374.802V31.378H376.224V42.88ZM376.224 28.498H374.802V27.058H376.224V28.498ZM383.779 40.018H379.459V38.578H383.779V40.018ZM385.219 38.578H383.779V37.138H385.219V38.578ZM383.779 32.818H379.459V31.378H383.779V32.818ZM385.219 35.698H379.459V38.578H378.037V32.818H379.459V34.258H383.779V32.818H385.219V35.698ZM394.219 38.578H392.779V37.138H394.219V38.578ZM388.459 38.578H387.037V32.818H388.459V38.578ZM392.779 40.018H388.459V38.578H392.779V40.018ZM392.779 32.818H388.459V31.378H392.779V32.818ZM394.219 34.258H392.779V32.818H394.219V34.258ZM398.899 32.818H397.459V38.578H396.037V28.498H397.459V31.378H398.899V32.818ZM398.899 40.018H397.459V38.578H398.899V40.018ZM406.455 38.578H405.033V37.138H406.455V38.578ZM405.015 37.138H403.575V35.698H405.015V37.138ZM402.135 38.578H400.713V37.138H402.135V38.578ZM405.033 40.018H402.135V38.578H405.033V40.018ZM403.575 35.698H402.135V34.258H403.575V35.698ZM406.455 34.258H405.033V32.818H406.455V34.258ZM405.033 32.818H402.135V31.378H405.033V32.818ZM402.135 34.258H400.713V32.818H402.135V34.258Z"/>
</mask>
<path d="M27.082 40.018H21.322V38.578H27.082V40.018ZM28.522 38.578H27.082V37.138H28.522V38.578ZM28.522 29.938H27.082V28.498H28.522V29.938ZM27.082 28.498H21.322V27.058H27.082V28.498ZM21.322 38.578H19.9V28.498H21.322V38.578ZM31.7634 40H30.3414V38.578H31.7634V40ZM31.7634 32.818H30.3414V31.378H31.7634V32.818ZM36.4378 34.258H34.9978V31.378H36.4378V34.258ZM34.9978 31.378H33.5758V27.058H34.9978V31.378ZM37.8778 37.138H36.4378V34.258H37.8778V37.138ZM39.3178 40H37.8778V37.138H39.3178V40ZM43.9964 34.258H42.5564V31.378H43.9964V34.258ZM42.5564 31.378H41.1344V27.058H42.5564V31.378ZM45.4364 37.138H43.9964V34.258H45.4364V37.138ZM46.8764 40H45.4364V37.138H46.8764V40ZM50.115 28.498V32.818H55.875V34.258H50.115V40H48.693V27.058H55.875V28.498H50.115ZM57.315 32.818H55.875V28.498H57.315V32.818ZM67.7564 40H66.3164V34.258H67.7564V40ZM60.5564 32.818H66.3164V34.258H60.5564V40H59.1344V27.058H66.3164V28.498H60.5564V32.818ZM67.7564 32.818H66.3164V28.498H67.7564V32.818ZM70.9978 38.578H69.5758V28.498H70.9978V38.578ZM76.7578 40.018H70.9978V38.578H76.7578V40.018ZM78.1978 38.578H76.7578V28.498H78.1978V38.578ZM76.7578 28.498H70.9978V27.058H76.7578V28.498ZM84.3192 40.018H81.4392V38.578H84.3192V40.018ZM85.7592 38.578H84.3192V27.058H85.7592V38.578ZM81.4392 38.578H80.0172V35.698H81.4392V38.578ZM94.7578 28.498H88.9978V32.818H93.3178V34.258H88.9978V38.578H94.7578V40H87.5758V27.058H94.7578V28.498ZM103.758 40.018H97.9978V38.578H103.758V40.018ZM105.198 38.578H103.758V37.138H105.198V38.578ZM105.198 29.938H103.758V28.498H105.198V29.938ZM103.758 28.498H97.9978V27.058H103.758V28.498ZM97.9978 38.578H96.5758V28.498H97.9978V38.578ZM107.017 27.058H114.199V28.498H111.337V40H109.879V28.498H107.017V27.058ZM124.639 40H116.017V38.578H124.639V40ZM130.761 34.258H129.321V31.378H130.761V34.258ZM127.881 28.498H129.321V31.378H127.881V40H126.459V27.058H127.881V28.498ZM133.641 27.058H135.081V40H133.641V38.578H132.201V35.698H133.641V27.058ZM132.201 35.698H130.761V34.258H132.201V35.698ZM142.642 29.938H141.202V27.058H142.642V29.938ZM146.962 40H145.522V37.138H146.962V40ZM144.082 32.818H142.642V29.938H144.082V32.818ZM138.322 40H136.9V37.138H138.322V40ZM144.082 32.818H145.522V37.138H138.322V32.818H139.762V35.698H144.082V32.818ZM141.202 32.818H139.762V29.938H141.202V32.818ZM154.525 38.578H153.103V35.698H154.525V38.578ZM150.205 29.938H151.645V32.818H150.205V40H148.783V27.058H150.205V29.938ZM155.965 35.698H154.525V32.818H155.965V35.698ZM157.405 27.058H158.845V40H157.405V32.818H155.965V29.938H157.405V27.058ZM153.085 35.698H151.645V32.818H153.085V35.698ZM167.848 28.498H162.088V32.818H166.408V34.258H162.088V38.578H167.848V40H160.666V27.058H167.848V28.498ZM172.546 40.126H171.106V38.686H172.546V40.126ZM171.106 41.548H169.666V40.126H171.106V41.548ZM173.986 38.686H172.546V37.228H173.986V38.686ZM175.408 34.366H176.848V35.806H175.426V37.228H173.968V35.806H175.408V34.384H173.968V32.944H175.408V34.366ZM173.968 32.944H172.528V31.486H173.968V32.944ZM171.106 30.064H172.528V31.486H171.088V30.064H169.666V28.624H171.106V30.064ZM188.345 32.818H184.025V31.36H188.345V32.818ZM184.025 38.578H182.603V35.68H184.025V38.578ZM188.345 32.818H189.785V40H184.025V38.578H188.345V35.68H184.025V34.258H188.345V32.818ZM193.025 37.138H191.603V31.36H193.025V37.138ZM195.905 37.138H194.465V34.258H195.905V37.138ZM194.465 40H193.025V37.138H194.465V40ZM200.225 40H198.785V37.138H200.225V40ZM201.665 37.138H200.225V31.36H201.665V37.138ZM197.345 34.258H195.905V31.36H197.345V34.258ZM198.785 37.138H197.345V34.258H198.785V37.138ZM209.228 40.018H204.908V38.578H209.228V40.018ZM210.668 38.578H209.228V37.138H210.668V38.578ZM209.228 32.818H204.908V31.378H209.228V32.818ZM210.668 35.698H204.908V38.578H203.486V32.818H204.908V34.258H209.228V32.818H210.668V35.698ZM218.228 38.578H216.806V37.138H218.228V38.578ZM216.788 37.138H215.348V35.698H216.788V37.138ZM213.908 38.578H212.486V37.138H213.908V38.578ZM216.806 40.018H213.908V38.578H216.806V40.018ZM215.348 35.698H213.908V34.258H215.348V35.698ZM218.228 34.258H216.806V32.818H218.228V34.258ZM216.806 32.818H213.908V31.378H216.806V32.818ZM213.908 34.258H212.486V32.818H213.908V34.258ZM225.787 40.018H221.467V38.578H225.787V40.018ZM221.467 38.578H220.045V32.818H221.467V38.578ZM225.787 32.818H221.467V31.378H225.787V32.818ZM227.227 38.578H225.787V32.818H227.227V38.578ZM234.787 40.018H233.365V32.818H234.787V40.018ZM229.045 31.378H233.365V32.818H230.467V40H229.045V31.378ZM239.107 40.018H237.667V32.818H239.107V40.018ZM237.667 32.818H234.787V31.378H237.667V32.818ZM246.669 40.018H242.349V38.578H246.669V40.018ZM248.109 38.578H246.669V37.138H248.109V38.578ZM246.669 32.818H242.349V31.378H246.669V32.818ZM248.109 35.698H242.349V38.578H240.927V32.818H242.349V34.258H246.669V32.818H248.109V35.698ZM249.927 35.23H257.109V36.652H249.927V35.23ZM264.652 40.018H260.332V38.578H264.652V40.018ZM260.332 38.578H258.91V32.818H260.332V38.578ZM264.652 32.818H260.332V31.378H264.652V32.818ZM266.092 38.578H264.652V32.818H266.092V38.578ZM269.332 32.818V38.578H273.652V40H269.332V42.88H267.91V31.378H273.652V32.818H269.332ZM275.092 38.578H273.652V32.818H275.092V38.578ZM282.652 40.018H278.332V38.578H282.652V40.018ZM284.092 38.578H282.652V37.138H284.092V38.578ZM282.652 32.818H278.332V31.378H282.652V32.818ZM284.092 35.698H278.332V38.578H276.91V32.818H278.332V34.258H282.652V32.818H284.092V35.698ZM287.332 31.378V32.818H288.772V34.258H287.332V40H285.91V31.378H287.332ZM293.092 40.018H291.652V32.818H293.092V40.018ZM291.652 32.818H288.772V31.378H291.652V32.818ZM300.652 38.578H299.23V37.138H300.652V38.578ZM299.212 37.138H297.772V35.698H299.212V37.138ZM296.332 38.578H294.91V37.138H296.332V38.578ZM299.23 40.018H296.332V38.578H299.23V40.018ZM297.772 35.698H296.332V34.258H297.772V35.698ZM300.652 34.258H299.23V32.818H300.652V34.258ZM299.23 32.818H296.332V31.378H299.23V32.818ZM296.332 34.258H294.91V32.818H296.332V34.258ZM308.21 40.018H303.89V38.578H308.21V40.018ZM303.89 38.578H302.468V32.818H303.89V38.578ZM308.21 32.818H303.89V31.378H308.21V32.818ZM309.65 38.578H308.21V32.818H309.65V38.578ZM315.788 40.018H312.89V38.578H315.788V40.018ZM312.89 38.578H311.468V31.378H312.89V38.578ZM317.21 31.378H318.65V40H317.21V38.578H315.77V37.138H317.21V31.378ZM320.468 31.36H323.33V32.818H321.89V40H320.468V31.36ZM332.326 38.578H330.886V37.138H332.326V38.578ZM326.566 38.578H325.144V32.818H326.566V38.578ZM330.886 40.018H326.566V38.578H330.886V40.018ZM330.886 32.818H326.566V31.378H330.886V32.818ZM332.326 34.258H330.886V32.818H332.326V34.258ZM339.886 40.018H335.566V38.578H339.886V40.018ZM341.326 38.578H339.886V37.138H341.326V38.578ZM339.886 32.818H335.566V31.378H339.886V32.818ZM341.326 35.698H335.566V38.578H334.144V32.818H335.566V34.258H339.886V32.818H341.326V35.698ZM343.144 35.23H350.326V36.652H343.144V35.23ZM353.549 32.818V38.578H357.869V40H353.549V42.88H352.127V31.378H357.869V32.818H353.549ZM359.309 38.578H357.869V32.818H359.309V38.578ZM361.127 31.36H363.989V32.818H362.549V40H361.127V31.36ZM371.544 40.018H367.224V38.578H371.544V40.018ZM367.224 38.578H365.802V32.818H367.224V38.578ZM371.544 32.818H367.224V31.378H371.544V32.818ZM372.984 38.578H371.544V32.818H372.984V38.578ZM376.224 42.88H374.802V31.378H376.224V42.88ZM376.224 28.498H374.802V27.058H376.224V28.498ZM383.779 40.018H379.459V38.578H383.779V40.018ZM385.219 38.578H383.779V37.138H385.219V38.578ZM383.779 32.818H379.459V31.378H383.779V32.818ZM385.219 35.698H379.459V38.578H378.037V32.818H379.459V34.258H383.779V32.818H385.219V35.698ZM394.219 38.578H392.779V37.138H394.219V38.578ZM388.459 38.578H387.037V32.818H388.459V38.578ZM392.779 40.018H388.459V38.578H392.779V40.018ZM392.779 32.818H388.459V31.378H392.779V32.818ZM394.219 34.258H392.779V32.818H394.219V34.258ZM398.899 32.818H397.459V38.578H396.037V28.498H397.459V31.378H398.899V32.818ZM398.899 40.018H397.459V38.578H398.899V40.018ZM406.455 38.578H405.033V37.138H406.455V38.578ZM405.015 37.138H403.575V35.698H405.015V37.138ZM402.135 38.578H400.713V37.138H402.135V38.578ZM405.033 40.018H402.135V38.578H405.033V40.018ZM403.575 35.698H402.135V34.258H403.575V35.698ZM406.455 34.258H405.033V32.818H406.455V34.258ZM405.033 32.818H402.135V31.378H405.033V32.818ZM402.135 34.258H400.713V32.818H402.135V34.258Z" fill="white"/>
<path d="M27.082 40.018V41.018H28.082V40.018H27.082ZM21.322 40.018H20.322V41.018H21.322V40.018ZM21.322 38.578V37.578H20.322V38.578H21.322ZM27.082 38.578H28.082V37.578H27.082V38.578ZM28.522 38.578V39.578H29.522V38.578H28.522ZM27.082 38.578H26.082V39.578H27.082V38.578ZM27.082 37.138V36.138H26.082V37.138H27.082ZM28.522 37.138H29.522V36.138H28.522V37.138ZM28.522 29.938V30.938H29.522V29.938H28.522ZM27.082 29.938H26.082V30.938H27.082V29.938ZM27.082 28.498V27.498H26.082V28.498H27.082ZM28.522 28.498H29.522V27.498H28.522V28.498ZM27.082 28.498V29.498H28.082V28.498H27.082ZM21.322 28.498H20.322V29.498H21.322V28.498ZM21.322 27.058V26.058H20.322V27.058H21.322ZM27.082 27.058H28.082V26.058H27.082V27.058ZM21.322 38.578V39.578H22.322V38.578H21.322ZM19.9 38.578H18.9V39.578H19.9V38.578ZM19.9 28.498V27.498H18.9V28.498H19.9ZM21.322 28.498H22.322V27.498H21.322V28.498ZM27.082 40.018V39.018H21.322V40.018V41.018H27.082V40.018ZM21.322 40.018H22.322V38.578H21.322H20.322V40.018H21.322ZM21.322 38.578V39.578H27.082V38.578V37.578H21.322V38.578ZM27.082 38.578H26.082V40.018H27.082H28.082V38.578H27.082ZM28.522 38.578V37.578H27.082V38.578V39.578H28.522V38.578ZM27.082 38.578H28.082V37.138H27.082H26.082V38.578H27.082ZM27.082 37.138V38.138H28.522V37.138V36.138H27.082V37.138ZM28.522 37.138H27.522V38.578H28.522H29.522V37.138H28.522ZM28.522 29.938V28.938H27.082V29.938V30.938H28.522V29.938ZM27.082 29.938H28.082V28.498H27.082H26.082V29.938H27.082ZM27.082 28.498V29.498H28.522V28.498V27.498H27.082V28.498ZM28.522 28.498H27.522V29.938H28.522H29.522V28.498H28.522ZM27.082 28.498V27.498H21.322V28.498V29.498H27.082V28.498ZM21.322 28.498H22.322V27.058H21.322H20.322V28.498H21.322ZM21.322 27.058V28.058H27.082V27.058V26.058H21.322V27.058ZM27.082 27.058H26.082V28.498H27.082H28.082V27.058H27.082ZM21.322 38.578V37.578H19.9V38.578V39.578H21.322V38.578ZM19.9 38.578H20.9V28.498H19.9H18.9V38.578H19.9ZM19.9 28.498V29.498H21.322V28.498V27.498H19.9V28.498ZM21.322 28.498H20.322V38.578H21.322H22.322V28.498H21.322ZM31.7634 40V41H32.7634V40H31.7634ZM30.3414 40H29.3414V41H30.3414V40ZM30.3414 38.578V37.578H29.3414V38.578H30.3414ZM31.7634 38.578H32.7634V37.578H31.7634V38.578ZM31.7634 32.818V33.818H32.7634V32.818H31.7634ZM30.3414 32.818H29.3414V33.818H30.3414V32.818ZM30.3414 31.378V30.378H29.3414V31.378H30.3414ZM31.7634 31.378H32.7634V30.378H31.7634V31.378ZM31.7634 40V39H30.3414V40V41H31.7634V40ZM30.3414 40H31.3414V38.578H30.3414H29.3414V40H30.3414ZM30.3414 38.578V39.578H31.7634V38.578V37.578H30.3414V38.578ZM31.7634 38.578H30.7634V40H31.7634H32.7634V38.578H31.7634ZM31.7634 32.818V31.818H30.3414V32.818V33.818H31.7634V32.818ZM30.3414 32.818H31.3414V31.378H30.3414H29.3414V32.818H30.3414ZM30.3414 31.378V32.378H31.7634V31.378V30.378H30.3414V31.378ZM31.7634 31.378H30.7634V32.818H31.7634H32.7634V31.378H31.7634ZM36.4378 34.258V35.258H37.4378V34.258H36.4378ZM34.9978 34.258H33.9978V35.258H34.9978V34.258ZM34.9978 31.378V30.378H33.9978V31.378H34.9978ZM36.4378 31.378H37.4378V30.378H36.4378V31.378ZM34.9978 31.378V32.378H35.9978V31.378H34.9978ZM33.5758 31.378H32.5758V32.378H33.5758V31.378ZM33.5758 27.058V26.058H32.5758V27.058H33.5758ZM34.9978 27.058H35.9978V26.058H34.9978V27.058ZM37.8778 37.138V38.138H38.8778V37.138H37.8778ZM36.4378 37.138H35.4378V38.138H36.4378V37.138ZM36.4378 34.258V33.258H35.4378V34.258H36.4378ZM37.8778 34.258H38.8778V33.258H37.8778V34.258ZM39.3178 40V41H40.3178V40H39.3178ZM37.8778 40H36.8778V41H37.8778V40ZM37.8778 37.138V36.138H36.8778V37.138H37.8778ZM39.3178 37.138H40.3178V36.138H39.3178V37.138ZM36.4378 34.258V33.258H34.9978V34.258V35.258H36.4378V34.258ZM34.9978 34.258H35.9978V31.378H34.9978H33.9978V34.258H34.9978ZM34.9978 31.378V32.378H36.4378V31.378V30.378H34.9978V31.378ZM36.4378 31.378H35.4378V34.258H36.4378H37.4378V31.378H36.4378ZM34.9978 31.378V30.378H33.5758V31.378V32.378H34.9978V31.378ZM33.5758 31.378H34.5758V27.058H33.5758H32.5758V31.378H33.5758ZM33.5758 27.058V28.058H34.9978V27.058V26.058H33.5758V27.058ZM34.9978 27.058H33.9978V31.378H34.9978H35.9978V27.058H34.9978ZM37.8778 37.138V36.138H36.4378V37.138V38.138H37.8778V37.138ZM36.4378 37.138H37.4378V34.258H36.4378H35.4378V37.138H36.4378ZM36.4378 34.258V35.258H37.8778V34.258V33.258H36.4378V34.258ZM37.8778 34.258H36.8778V37.138H37.8778H38.8778V34.258H37.8778ZM39.3178 40V39H37.8778V40V41H39.3178V40ZM37.8778 40H38.8778V37.138H37.8778H36.8778V40H37.8778ZM37.8778 37.138V38.138H39.3178V37.138V36.138H37.8778V37.138ZM39.3178 37.138H38.3178V40H39.3178H40.3178V37.138H39.3178ZM43.9964 34.258V35.258H44.9964V34.258H43.9964ZM42.5564 34.258H41.5564V35.258H42.5564V34.258ZM42.5564 31.378V30.378H41.5564V31.378H42.5564ZM43.9964 31.378H44.9964V30.378H43.9964V31.378ZM42.5564 31.378V32.378H43.5564V31.378H42.5564ZM41.1344 31.378H40.1344V32.378H41.1344V31.378ZM41.1344 27.058V26.058H40.1344V27.058H41.1344ZM42.5564 27.058H43.5564V26.058H42.5564V27.058ZM45.4364 37.138V38.138H46.4364V37.138H45.4364ZM43.9964 37.138H42.9964V38.138H43.9964V37.138ZM43.9964 34.258V33.258H42.9964V34.258H43.9964ZM45.4364 34.258H46.4364V33.258H45.4364V34.258ZM46.8764 40V41H47.8764V40H46.8764ZM45.4364 40H44.4364V41H45.4364V40ZM45.4364 37.138V36.138H44.4364V37.138H45.4364ZM46.8764 37.138H47.8764V36.138H46.8764V37.138ZM43.9964 34.258V33.258H42.5564V34.258V35.258H43.9964V34.258ZM42.5564 34.258H43.5564V31.378H42.5564H41.5564V34.258H42.5564ZM42.5564 31.378V32.378H43.9964V31.378V30.378H42.5564V31.378ZM43.9964 31.378H42.9964V34.258H43.9964H44.9964V31.378H43.9964ZM42.5564 31.378V30.378H41.1344V31.378V32.378H42.5564V31.378ZM41.1344 31.378H42.1344V27.058H41.1344H40.1344V31.378H41.1344ZM41.1344 27.058V28.058H42.5564V27.058V26.058H41.1344V27.058ZM42.5564 27.058H41.5564V31.378H42.5564H43.5564V27.058H42.5564ZM45.4364 37.138V36.138H43.9964V37.138V38.138H45.4364V37.138ZM43.9964 37.138H44.9964V34.258H43.9964H42.9964V37.138H43.9964ZM43.9964 34.258V35.258H45.4364V34.258V33.258H43.9964V34.258ZM45.4364 34.258H44.4364V37.138H45.4364H46.4364V34.258H45.4364ZM46.8764 40V39H45.4364V40V41H46.8764V40ZM45.4364 40H46.4364V37.138H45.4364H44.4364V40H45.4364ZM45.4364 37.138V38.138H46.8764V37.138V36.138H45.4364V37.138ZM46.8764 37.138H45.8764V40H46.8764H47.8764V37.138H46.8764ZM50.115 28.498V27.498H49.115V28.498H50.115ZM50.115 32.818H49.115V33.818H50.115V32.818ZM55.875 32.818H56.875V31.818H55.875V32.818ZM55.875 34.258V35.258H56.875V34.258H55.875ZM50.115 34.258V33.258H49.115V34.258H50.115ZM50.115 40V41H51.115V40H50.115ZM48.693 40H47.693V41H48.693V40ZM48.693 27.058V26.058H47.693V27.058H48.693ZM55.875 27.058H56.875V26.058H55.875V27.058ZM55.875 28.498V29.498H56.875V28.498H55.875ZM57.315 32.818V33.818H58.315V32.818H57.315ZM55.875 32.818H54.875V33.818H55.875V32.818ZM55.875 28.498V27.498H54.875V28.498H55.875ZM57.315 28.498H58.315V27.498H57.315V28.498ZM50.115 28.498H49.115V32.818H50.115H51.115V28.498H50.115ZM50.115 32.818V33.818H55.875V32.818V31.818H50.115V32.818ZM55.875 32.818H54.875V34.258H55.875H56.875V32.818H55.875ZM55.875 34.258V33.258H50.115V34.258V35.258H55.875V34.258ZM50.115 34.258H49.115V40H50.115H51.115V34.258H50.115ZM50.115 40V39H48.693V40V41H50.115V40ZM48.693 40H49.693V27.058H48.693H47.693V40H48.693ZM48.693 27.058V28.058H55.875V27.058V26.058H48.693V27.058ZM55.875 27.058H54.875V28.498H55.875H56.875V27.058H55.875ZM55.875 28.498V27.498H50.115V28.498V29.498H55.875V28.498ZM57.315 32.818V31.818H55.875V32.818V33.818H57.315V32.818ZM55.875 32.818H56.875V28.498H55.875H54.875V32.818H55.875ZM55.875 28.498V29.498H57.315V28.498V27.498H55.875V28.498ZM57.315 28.498H56.315V32.818H57.315H58.315V28.498H57.315ZM67.7564 40V41H68.7564V40H67.7564ZM66.3164 40H65.3164V41H66.3164V40ZM66.3164 34.258V33.258H65.3164V34.258H66.3164ZM67.7564 34.258H68.7564V33.258H67.7564V34.258ZM60.5564 32.818H59.5564V33.818H60.5564V32.818ZM66.3164 32.818H67.3164V31.818H66.3164V32.818ZM66.3164 34.258V35.258H67.3164V34.258H66.3164ZM60.5564 34.258V33.258H59.5564V34.258H60.5564ZM60.5564 40V41H61.5564V40H60.5564ZM59.1344 40H58.1344V41H59.1344V40ZM59.1344 27.058V26.058H58.1344V27.058H59.1344ZM66.3164 27.058H67.3164V26.058H66.3164V27.058ZM66.3164 28.498V29.498H67.3164V28.498H66.3164ZM60.5564 28.498V27.498H59.5564V28.498H60.5564ZM67.7564 32.818V33.818H68.7564V32.818H67.7564ZM66.3164 32.818H65.3164V33.818H66.3164V32.818ZM66.3164 28.498V27.498H65.3164V28.498H66.3164ZM67.7564 28.498H68.7564V27.498H67.7564V28.498ZM67.7564 40V39H66.3164V40V41H67.7564V40ZM66.3164 40H67.3164V34.258H66.3164H65.3164V40H66.3164ZM66.3164 34.258V35.258H67.7564V34.258V33.258H66.3164V34.258ZM67.7564 34.258H66.7564V40H67.7564H68.7564V34.258H67.7564ZM60.5564 32.818V33.818H66.3164V32.818V31.818H60.5564V32.818ZM66.3164 32.818H65.3164V34.258H66.3164H67.3164V32.818H66.3164ZM66.3164 34.258V33.258H60.5564V34.258V35.258H66.3164V34.258ZM60.5564 34.258H59.5564V40H60.5564H61.5564V34.258H60.5564ZM60.5564 40V39H59.1344V40V41H60.5564V40ZM59.1344 40H60.1344V27.058H59.1344H58.1344V40H59.1344ZM59.1344 27.058V28.058H66.3164V27.058V26.058H59.1344V27.058ZM66.3164 27.058H65.3164V28.498H66.3164H67.3164V27.058H66.3164ZM66.3164 28.498V27.498H60.5564V28.498V29.498H66.3164V28.498ZM60.5564 28.498H59.5564V32.818H60.5564H61.5564V28.498H60.5564ZM67.7564 32.818V31.818H66.3164V32.818V33.818H67.7564V32.818ZM66.3164 32.818H67.3164V28.498H66.3164H65.3164V32.818H66.3164ZM66.3164 28.498V29.498H67.7564V28.498V27.498H66.3164V28.498ZM67.7564 28.498H66.7564V32.818H67.7564H68.7564V28.498H67.7564ZM70.9978 38.578V39.578H71.9978V38.578H70.9978ZM69.5758 38.578H68.5758V39.578H69.5758V38.578ZM69.5758 28.498V27.498H68.5758V28.498H69.5758ZM70.9978 28.498H71.9978V27.498H70.9978V28.498ZM76.7578 40.018V41.018H77.7578V40.018H76.7578ZM70.9978 40.018H69.9978V41.018H70.9978V40.018ZM70.9978 38.578V37.578H69.9978V38.578H70.9978ZM76.7578 38.578H77.7578V37.578H76.7578V38.578ZM78.1978 38.578V39.578H79.1978V38.578H78.1978ZM76.7578 38.578H75.7578V39.578H76.7578V38.578ZM76.7578 28.498V27.498H75.7578V28.498H76.7578ZM78.1978 28.498H79.1978V27.498H78.1978V28.498ZM76.7578 28.498V29.498H77.7578V28.498H76.7578ZM70.9978 28.498H69.9978V29.498H70.9978V28.498ZM70.9978 27.058V26.058H69.9978V27.058H70.9978ZM76.7578 27.058H77.7578V26.058H76.7578V27.058ZM70.9978 38.578V37.578H69.5758V38.578V39.578H70.9978V38.578ZM69.5758 38.578H70.5758V28.498H69.5758H68.5758V38.578H69.5758ZM69.5758 28.498V29.498H70.9978V28.498V27.498H69.5758V28.498ZM70.9978 28.498H69.9978V38.578H70.9978H71.9978V28.498H70.9978ZM76.7578 40.018V39.018H70.9978V40.018V41.018H76.7578V40.018ZM70.9978 40.018H71.9978V38.578H70.9978H69.9978V40.018H70.9978ZM70.9978 38.578V39.578H76.7578V38.578V37.578H70.9978V38.578ZM76.7578 38.578H75.7578V40.018H76.7578H77.7578V38.578H76.7578ZM78.1978 38.578V37.578H76.7578V38.578V39.578H78.1978V38.578ZM76.7578 38.578H77.7578V28.498H76.7578H75.7578V38.578H76.7578ZM76.7578 28.498V29.498H78.1978V28.498V27.498H76.7578V28.498ZM78.1978 28.498H77.1978V38.578H78.1978H79.1978V28.498H78.1978ZM76.7578 28.498V27.498H70.9978V28.498V29.498H76.7578V28.498ZM70.9978 28.498H71.9978V27.058H70.9978H69.9978V28.498H70.9978ZM70.9978 27.058V28.058H76.7578V27.058V26.058H70.9978V27.058ZM76.7578 27.058H75.7578V28.498H76.7578H77.7578V27.058H76.7578ZM84.3192 40.018V41.018H85.3192V40.018H84.3192ZM81.4392 40.018H80.4392V41.018H81.4392V40.018ZM81.4392 38.578V37.578H80.4392V38.578H81.4392ZM84.3192 38.578H85.3192V37.578H84.3192V38.578ZM85.7592 38.578V39.578H86.7592V38.578H85.7592ZM84.3192 38.578H83.3192V39.578H84.3192V38.578ZM84.3192 27.058V26.058H83.3192V27.058H84.3192ZM85.7592 27.058H86.7592V26.058H85.7592V27.058ZM81.4392 38.578V39.578H82.4392V38.578H81.4392ZM80.0172 38.578H79.0172V39.578H80.0172V38.578ZM80.0172 35.698V34.698H79.0172V35.698H80.0172ZM81.4392 35.698H82.4392V34.698H81.4392V35.698ZM84.3192 40.018V39.018H81.4392V40.018V41.018H84.3192V40.018ZM81.4392 40.018H82.4392V38.578H81.4392H80.4392V40.018H81.4392ZM81.4392 38.578V39.578H84.3192V38.578V37.578H81.4392V38.578ZM84.3192 38.578H83.3192V40.018H84.3192H85.3192V38.578H84.3192ZM85.7592 38.578V37.578H84.3192V38.578V39.578H85.7592V38.578ZM84.3192 38.578H85.3192V27.058H84.3192H83.3192V38.578H84.3192ZM84.3192 27.058V28.058H85.7592V27.058V26.058H84.3192V27.058ZM85.7592 27.058H84.7592V38.578H85.7592H86.7592V27.058H85.7592ZM81.4392 38.578V37.578H80.0172V38.578V39.578H81.4392V38.578ZM80.0172 38.578H81.0172V35.698H80.0172H79.0172V38.578H80.0172ZM80.0172 35.698V36.698H81.4392V35.698V34.698H80.0172V35.698ZM81.4392 35.698H80.4392V38.578H81.4392H82.4392V35.698H81.4392ZM94.7578 28.498V29.498H95.7578V28.498H94.7578ZM88.9978 28.498V27.498H87.9978V28.498H88.9978ZM88.9978 32.818H87.9978V33.818H88.9978V32.818ZM93.3178 32.818H94.3178V31.818H93.3178V32.818ZM93.3178 34.258V35.258H94.3178V34.258H93.3178ZM88.9978 34.258V33.258H87.9978V34.258H88.9978ZM88.9978 38.578H87.9978V39.578H88.9978V38.578ZM94.7578 38.578H95.7578V37.578H94.7578V38.578ZM94.7578 40V41H95.7578V40H94.7578ZM87.5758 40H86.5758V41H87.5758V40ZM87.5758 27.058V26.058H86.5758V27.058H87.5758ZM94.7578 27.058H95.7578V26.058H94.7578V27.058ZM94.7578 28.498V27.498H88.9978V28.498V29.498H94.7578V28.498ZM88.9978 28.498H87.9978V32.818H88.9978H89.9978V28.498H88.9978ZM88.9978 32.818V33.818H93.3178V32.818V31.818H88.9978V32.818ZM93.3178 32.818H92.3178V34.258H93.3178H94.3178V32.818H93.3178ZM93.3178 34.258V33.258H88.9978V34.258V35.258H93.3178V34.258ZM88.9978 34.258H87.9978V38.578H88.9978H89.9978V34.258H88.9978ZM88.9978 38.578V39.578H94.7578V38.578V37.578H88.9978V38.578ZM94.7578 38.578H93.7578V40H94.7578H95.7578V38.578H94.7578ZM94.7578 40V39H87.5758V40V41H94.7578V40ZM87.5758 40H88.5758V27.058H87.5758H86.5758V40H87.5758ZM87.5758 27.058V28.058H94.7578V27.058V26.058H87.5758V27.058ZM94.7578 27.058H93.7578V28.498H94.7578H95.7578V27.058H94.7578ZM103.758 40.018V41.018H104.758V40.018H103.758ZM97.9978 40.018H96.9978V41.018H97.9978V40.018ZM97.9978 38.578V37.578H96.9978V38.578H97.9978ZM103.758 38.578H104.758V37.578H103.758V38.578ZM105.198 38.578V39.578H106.198V38.578H105.198ZM103.758 38.578H102.758V39.578H103.758V38.578ZM103.758 37.138V36.138H102.758V37.138H103.758ZM105.198 37.138H106.198V36.138H105.198V37.138ZM105.198 29.938V30.938H106.198V29.938H105.198ZM103.758 29.938H102.758V30.938H103.758V29.938ZM103.758 28.498V27.498H102.758V28.498H103.758ZM105.198 28.498H106.198V27.498H105.198V28.498ZM103.758 28.498V29.498H104.758V28.498H103.758ZM97.9978 28.498H96.9978V29.498H97.9978V28.498ZM97.9978 27.058V26.058H96.9978V27.058H97.9978ZM103.758 27.058H104.758V26.058H103.758V27.058ZM97.9978 38.578V39.578H98.9978V38.578H97.9978ZM96.5758 38.578H95.5758V39.578H96.5758V38.578ZM96.5758 28.498V27.498H95.5758V28.498H96.5758ZM97.9978 28.498H98.9978V27.498H97.9978V28.498ZM103.758 40.018V39.018H97.9978V40.018V41.018H103.758V40.018ZM97.9978 40.018H98.9978V38.578H97.9978H96.9978V40.018H97.9978ZM97.9978 38.578V39.578H103.758V38.578V37.578H97.9978V38.578ZM103.758 38.578H102.758V40.018H103.758H104.758V38.578H103.758ZM105.198 38.578V37.578H103.758V38.578V39.578H105.198V38.578ZM103.758 38.578H104.758V37.138H103.758H102.758V38.578H103.758ZM103.758 37.138V38.138H105.198V37.138V36.138H103.758V37.138ZM105.198 37.138H104.198V38.578H105.198H106.198V37.138H105.198ZM105.198 29.938V28.938H103.758V29.938V30.938H105.198V29.938ZM103.758 29.938H104.758V28.498H103.758H102.758V29.938H103.758ZM103.758 28.498V29.498H105.198V28.498V27.498H103.758V28.498ZM105.198 28.498H104.198V29.938H105.198H106.198V28.498H105.198ZM103.758 28.498V27.498H97.9978V28.498V29.498H103.758V28.498ZM97.9978 28.498H98.9978V27.058H97.9978H96.9978V28.498H97.9978ZM97.9978 27.058V28.058H103.758V27.058V26.058H97.9978V27.058ZM103.758 27.058H102.758V28.498H103.758H104.758V27.058H103.758ZM97.9978 38.578V37.578H96.5758V38.578V39.578H97.9978V38.578ZM96.5758 38.578H97.5758V28.498H96.5758H95.5758V38.578H96.5758ZM96.5758 28.498V29.498H97.9978V28.498V27.498H96.5758V28.498ZM97.9978 28.498H96.9978V38.578H97.9978H98.9978V28.498H97.9978ZM107.017 27.058V26.058H106.017V27.058H107.017ZM114.199 27.058H115.199V26.058H114.199V27.058ZM114.199 28.498V29.498H115.199V28.498H114.199ZM111.337 28.498V27.498H110.337V28.498H111.337ZM111.337 40V41H112.337V40H111.337ZM109.879 40H108.879V41H109.879V40ZM109.879 28.498H110.879V27.498H109.879V28.498ZM107.017 28.498H106.017V29.498H107.017V28.498ZM107.017 27.058V28.058H114.199V27.058V26.058H107.017V27.058ZM114.199 27.058H113.199V28.498H114.199H115.199V27.058H114.199ZM114.199 28.498V27.498H111.337V28.498V29.498H114.199V28.498ZM111.337 28.498H110.337V40H111.337H112.337V28.498H111.337ZM111.337 40V39H109.879V40V41H111.337V40ZM109.879 40H110.879V28.498H109.879H108.879V40H109.879ZM109.879 28.498V27.498H107.017V28.498V29.498H109.879V28.498ZM107.017 28.498H108.017V27.058H107.017H106.017V28.498H107.017ZM124.639 40V41H125.639V40H124.639ZM116.017 40H115.017V41H116.017V40ZM116.017 38.578V37.578H115.017V38.578H116.017ZM124.639 38.578H125.639V37.578H124.639V38.578ZM124.639 40V39H116.017V40V41H124.639V40ZM116.017 40H117.017V38.578H116.017H115.017V40H116.017ZM116.017 38.578V39.578H124.639V38.578V37.578H116.017V38.578ZM124.639 38.578H123.639V40H124.639H125.639V38.578H124.639ZM130.761 34.258V35.258H131.761V34.258H130.761ZM129.321 34.258H128.321V35.258H129.321V34.258ZM129.321 31.378V30.378H128.321V31.378H129.321ZM130.761 31.378H131.761V30.378H130.761V31.378ZM127.881 28.498H126.881V29.498H127.881V28.498ZM129.321 28.498H130.321V27.498H129.321V28.498ZM129.321 31.378V32.378H130.321V31.378H129.321ZM127.881 31.378V30.378H126.881V31.378H127.881ZM127.881 40V41H128.881V40H127.881ZM126.459 40H125.459V41H126.459V40ZM126.459 27.058V26.058H125.459V27.058H126.459ZM127.881 27.058H128.881V26.058H127.881V27.058ZM133.641 27.058V26.058H132.641V27.058H133.641ZM135.081 27.058H136.081V26.058H135.081V27.058ZM135.081 40V41H136.081V40H135.081ZM133.641 40H132.641V41H133.641V40ZM133.641 38.578H134.641V37.578H133.641V38.578ZM132.201 38.578H131.201V39.578H132.201V38.578ZM132.201 35.698V34.698H131.201V35.698H132.201ZM133.641 35.698V36.698H134.641V35.698H133.641ZM132.201 35.698V36.698H133.201V35.698H132.201ZM130.761 35.698H129.761V36.698H130.761V35.698ZM130.761 34.258V33.258H129.761V34.258H130.761ZM132.201 34.258H133.201V33.258H132.201V34.258ZM130.761 34.258V33.258H129.321V34.258V35.258H130.761V34.258ZM129.321 34.258H130.321V31.378H129.321H128.321V34.258H129.321ZM129.321 31.378V32.378H130.761V31.378V30.378H129.321V31.378ZM130.761 31.378H129.761V34.258H130.761H131.761V31.378H130.761ZM127.881 28.498V29.498H129.321V28.498V27.498H127.881V28.498ZM129.321 28.498H128.321V31.378H129.321H130.321V28.498H129.321ZM129.321 31.378V30.378H127.881V31.378V32.378H129.321V31.378ZM127.881 31.378H126.881V40H127.881H128.881V31.378H127.881ZM127.881 40V39H126.459V40V41H127.881V40ZM126.459 40H127.459V27.058H126.459H125.459V40H126.459ZM126.459 27.058V28.058H127.881V27.058V26.058H126.459V27.058ZM127.881 27.058H126.881V28.498H127.881H128.881V27.058H127.881ZM133.641 27.058V28.058H135.081V27.058V26.058H133.641V27.058ZM135.081 27.058H134.081V40H135.081H136.081V27.058H135.081ZM135.081 40V39H133.641V40V41H135.081V40ZM133.641 40H134.641V38.578H133.641H132.641V40H133.641ZM133.641 38.578V37.578H132.201V38.578V39.578H133.641V38.578ZM132.201 38.578H133.201V35.698H132.201H131.201V38.578H132.201ZM132.201 35.698V36.698H133.641V35.698V34.698H132.201V35.698ZM133.641 35.698H134.641V27.058H133.641H132.641V35.698H133.641ZM132.201 35.698V34.698H130.761V35.698V36.698H132.201V35.698ZM130.761 35.698H131.761V34.258H130.761H129.761V35.698H130.761ZM130.761 34.258V35.258H132.201V34.258V33.258H130.761V34.258ZM132.201 34.258H131.201V35.698H132.201H133.201V34.258H132.201ZM142.642 29.938V30.938H143.642V29.938H142.642ZM141.202 29.938H140.202V30.938H141.202V29.938ZM141.202 27.058V26.058H140.202V27.058H141.202ZM142.642 27.058H143.642V26.058H142.642V27.058ZM146.962 40V41H147.962V40H146.962ZM145.522 40H144.522V41H145.522V40ZM145.522 37.138V36.138H144.522V37.138H145.522ZM146.962 37.138H147.962V36.138H146.962V37.138ZM144.082 32.818V33.818H145.082V32.818H144.082ZM142.642 32.818H141.642V33.818H142.642V32.818ZM142.642 29.938V28.938H141.642V29.938H142.642ZM144.082 29.938H145.082V28.938H144.082V29.938ZM138.322 40V41H139.322V40H138.322ZM136.9 40H135.9V41H136.9V40ZM136.9 37.138V36.138H135.9V37.138H136.9ZM138.322 37.138H139.322V36.138H138.322V37.138ZM144.082 32.818V31.818H143.082V32.818H144.082ZM145.522 32.818H146.522V31.818H145.522V32.818ZM145.522 37.138V38.138H146.522V37.138H145.522ZM138.322 37.138H137.322V38.138H138.322V37.138ZM138.322 32.818V31.818H137.322V32.818H138.322ZM139.762 32.818H140.762V31.818H139.762V32.818ZM139.762 35.698H138.762V36.698H139.762V35.698ZM144.082 35.698V36.698H145.082V35.698H144.082ZM141.202 32.818V33.818H142.202V32.818H141.202ZM139.762 32.818H138.762V33.818H139.762V32.818ZM139.762 29.938V28.938H138.762V29.938H139.762ZM141.202 29.938H142.202V28.938H141.202V29.938ZM142.642 29.938V28.938H141.202V29.938V30.938H142.642V29.938ZM141.202 29.938H142.202V27.058H141.202H140.202V29.938H141.202ZM141.202 27.058V28.058H142.642V27.058V26.058H141.202V27.058ZM142.642 27.058H141.642V29.938H142.642H143.642V27.058H142.642ZM146.962 40V39H145.522V40V41H146.962V40ZM145.522 40H146.522V37.138H145.522H144.522V40H145.522ZM145.522 37.138V38.138H146.962V37.138V36.138H145.522V37.138ZM146.962 37.138H145.962V40H146.962H147.962V37.138H146.962ZM144.082 32.818V31.818H142.642V32.818V33.818H144.082V32.818ZM142.642 32.818H143.642V29.938H142.642H141.642V32.818H142.642ZM142.642 29.938V30.938H144.082V29.938V28.938H142.642V29.938ZM144.082 29.938H143.082V32.818H144.082H145.082V29.938H144.082ZM138.322 40V39H136.9V40V41H138.322V40ZM136.9 40H137.9V37.138H136.9H135.9V40H136.9ZM136.9 37.138V38.138H138.322V37.138V36.138H136.9V37.138ZM138.322 37.138H137.322V40H138.322H139.322V37.138H138.322ZM144.082 32.818V33.818H145.522V32.818V31.818H144.082V32.818ZM145.522 32.818H144.522V37.138H145.522H146.522V32.818H145.522ZM145.522 37.138V36.138H138.322V37.138V38.138H145.522V37.138ZM138.322 37.138H139.322V32.818H138.322H137.322V37.138H138.322ZM138.322 32.818V33.818H139.762V32.818V31.818H138.322V32.818ZM139.762 32.818H138.762V35.698H139.762H140.762V32.818H139.762ZM139.762 35.698V36.698H144.082V35.698V34.698H139.762V35.698ZM144.082 35.698H145.082V32.818H144.082H143.082V35.698H144.082ZM141.202 32.818V31.818H139.762V32.818V33.818H141.202V32.818ZM139.762 32.818H140.762V29.938H139.762H138.762V32.818H139.762ZM139.762 29.938V30.938H141.202V29.938V28.938H139.762V29.938ZM141.202 29.938H140.202V32.818H141.202H142.202V29.938H141.202ZM154.525 38.578V39.578H155.525V38.578H154.525ZM153.103 38.578H152.103V39.578H153.103V38.578ZM153.103 35.698V34.698H152.103V35.698H153.103ZM154.525 35.698H155.525V34.698H154.525V35.698ZM150.205 29.938H149.205V30.938H150.205V29.938ZM151.645 29.938H152.645V28.938H151.645V29.938ZM151.645 32.818V33.818H152.645V32.818H151.645ZM150.205 32.818V31.818H149.205V32.818H150.205ZM150.205 40V41H151.205V40H150.205ZM148.783 40H147.783V41H148.783V40ZM148.783 27.058V26.058H147.783V27.058H148.783ZM150.205 27.058H151.205V26.058H150.205V27.058ZM155.965 35.698V36.698H156.965V35.698H155.965ZM154.525 35.698H153.525V36.698H154.525V35.698ZM154.525 32.818V31.818H153.525V32.818H154.525ZM155.965 32.818H156.965V31.818H155.965V32.818ZM157.405 27.058V26.058H156.405V27.058H157.405ZM158.845 27.058H159.845V26.058H158.845V27.058ZM158.845 40V41H159.845V40H158.845ZM157.405 40H156.405V41H157.405V40ZM157.405 32.818H158.405V31.818H157.405V32.818ZM155.965 32.818H154.965V33.818H155.965V32.818ZM155.965 29.938V28.938H154.965V29.938H155.965ZM157.405 29.938V30.938H158.405V29.938H157.405ZM153.085 35.698V36.698H154.085V35.698H153.085ZM151.645 35.698H150.645V36.698H151.645V35.698ZM151.645 32.818V31.818H150.645V32.818H151.645ZM153.085 32.818H154.085V31.818H153.085V32.818ZM154.525 38.578V37.578H153.103V38.578V39.578H154.525V38.578ZM153.103 38.578H154.103V35.698H153.103H152.103V38.578H153.103ZM153.103 35.698V36.698H154.525V35.698V34.698H153.103V35.698ZM154.525 35.698H153.525V38.578H154.525H155.525V35.698H154.525ZM150.205 29.938V30.938H151.645V29.938V28.938H150.205V29.938ZM151.645 29.938H150.645V32.818H151.645H152.645V29.938H151.645ZM151.645 32.818V31.818H150.205V32.818V33.818H151.645V32.818ZM150.205 32.818H149.205V40H150.205H151.205V32.818H150.205ZM150.205 40V39H148.783V40V41H150.205V40ZM148.783 40H149.783V27.058H148.783H147.783V40H148.783ZM148.783 27.058V28.058H150.205V27.058V26.058H148.783V27.058ZM150.205 27.058H149.205V29.938H150.205H151.205V27.058H150.205ZM155.965 35.698V34.698H154.525V35.698V36.698H155.965V35.698ZM154.525 35.698H155.525V32.818H154.525H153.525V35.698H154.525ZM154.525 32.818V33.818H155.965V32.818V31.818H154.525V32.818ZM155.965 32.818H154.965V35.698H155.965H156.965V32.818H155.965ZM157.405 27.058V28.058H158.845V27.058V26.058H157.405V27.058ZM158.845 27.058H157.845V40H158.845H159.845V27.058H158.845ZM158.845 40V39H157.405V40V41H158.845V40ZM157.405 40H158.405V32.818H157.405H156.405V40H157.405ZM157.405 32.818V31.818H155.965V32.818V33.818H157.405V32.818ZM155.965 32.818H156.965V29.938H155.965H154.965V32.818H155.965ZM155.965 29.938V30.938H157.405V29.938V28.938H155.965V29.938ZM157.405 29.938H158.405V27.058H157.405H156.405V29.938H157.405ZM153.085 35.698V34.698H151.645V35.698V36.698H153.085V35.698ZM151.645 35.698H152.645V32.818H151.645H150.645V35.698H151.645ZM151.645 32.818V33.818H153.085V32.818V31.818H151.645V32.818ZM153.085 32.818H152.085V35.698H153.085H154.085V32.818H153.085ZM167.848 28.498V29.498H168.848V28.498H167.848ZM162.088 28.498V27.498H161.088V28.498H162.088ZM162.088 32.818H161.088V33.818H162.088V32.818ZM166.408 32.818H167.408V31.818H166.408V32.818ZM166.408 34.258V35.258H167.408V34.258H166.408ZM162.088 34.258V33.258H161.088V34.258H162.088ZM162.088 38.578H161.088V39.578H162.088V38.578ZM167.848 38.578H168.848V37.578H167.848V38.578ZM167.848 40V41H168.848V40H167.848ZM160.666 40H159.666V41H160.666V40ZM160.666 27.058V26.058H159.666V27.058H160.666ZM167.848 27.058H168.848V26.058H167.848V27.058ZM167.848 28.498V27.498H162.088V28.498V29.498H167.848V28.498ZM162.088 28.498H161.088V32.818H162.088H163.088V28.498H162.088ZM162.088 32.818V33.818H166.408V32.818V31.818H162.088V32.818ZM166.408 32.818H165.408V34.258H166.408H167.408V32.818H166.408ZM166.408 34.258V33.258H162.088V34.258V35.258H166.408V34.258ZM162.088 34.258H161.088V38.578H162.088H163.088V34.258H162.088ZM162.088 38.578V39.578H167.848V38.578V37.578H162.088V38.578ZM167.848 38.578H166.848V40H167.848H168.848V38.578H167.848ZM167.848 40V39H160.666V40V41H167.848V40ZM160.666 40H161.666V27.058H160.666H159.666V40H160.666ZM160.666 27.058V28.058H167.848V27.058V26.058H160.666V27.058ZM167.848 27.058H166.848V28.498H167.848H168.848V27.058H167.848ZM172.546 40.126V41.126H173.546V40.126H172.546ZM171.106 40.126H170.106V41.126H171.106V40.126ZM171.106 38.686V37.686H170.106V38.686H171.106ZM172.546 38.686H173.546V37.686H172.546V38.686ZM171.106 41.548V42.548H172.106V41.548H171.106ZM169.666 41.548H168.666V42.548H169.666V41.548ZM169.666 40.126V39.126H168.666V40.126H169.666ZM171.106 40.126H172.106V39.126H171.106V40.126ZM173.986 38.686V39.686H174.986V38.686H173.986ZM172.546 38.686H171.546V39.686H172.546V38.686ZM172.546 37.228V36.228H171.546V37.228H172.546ZM173.986 37.228H174.986V36.228H173.986V37.228ZM175.408 34.366H174.408V35.366H175.408V34.366ZM176.848 34.366H177.848V33.366H176.848V34.366ZM176.848 35.806V36.806H177.848V35.806H176.848ZM175.426 35.806V34.806H174.426V35.806H175.426ZM175.426 37.228V38.228H176.426V37.228H175.426ZM173.968 37.228H172.968V38.228H173.968V37.228ZM173.968 35.806V34.806H172.968V35.806H173.968ZM175.408 35.806V36.806H176.408V35.806H175.408ZM175.408 34.384H176.408V33.384H175.408V34.384ZM173.968 34.384H172.968V35.384H173.968V34.384ZM173.968 32.944V31.944H172.968V32.944H173.968ZM175.408 32.944H176.408V31.944H175.408V32.944ZM173.968 32.944V33.944H174.968V32.944H173.968ZM172.528 32.944H171.528V33.944H172.528V32.944ZM172.528 31.486V30.486H171.528V31.486H172.528ZM173.968 31.486H174.968V30.486H173.968V31.486ZM171.106 30.064H170.106V31.064H171.106V30.064ZM172.528 30.064H173.528V29.064H172.528V30.064ZM172.528 31.486V32.486H173.528V31.486H172.528ZM171.088 31.486H170.088V32.486H171.088V31.486ZM171.088 30.064H172.088V29.064H171.088V30.064ZM169.666 30.064H168.666V31.064H169.666V30.064ZM169.666 28.624V27.624H168.666V28.624H169.666ZM171.106 28.624H172.106V27.624H171.106V28.624ZM172.546 40.126V39.126H171.106V40.126V41.126H172.546V40.126ZM171.106 40.126H172.106V38.686H171.106H170.106V40.126H171.106ZM171.106 38.686V39.686H172.546V38.686V37.686H171.106V38.686ZM172.546 38.686H171.546V40.126H172.546H173.546V38.686H172.546ZM171.106 41.548V40.548H169.666V41.548V42.548H171.106V41.548ZM169.666 41.548H170.666V40.126H169.666H168.666V41.548H169.666ZM169.666 40.126V41.126H171.106V40.126V39.126H169.666V40.126ZM171.106 40.126H170.106V41.548H171.106H172.106V40.126H171.106ZM173.986 38.686V37.686H172.546V38.686V39.686H173.986V38.686ZM172.546 38.686H173.546V37.228H172.546H171.546V38.686H172.546ZM172.546 37.228V38.228H173.986V37.228V36.228H172.546V37.228ZM173.986 37.228H172.986V38.686H173.986H174.986V37.228H173.986ZM175.408 34.366V35.366H176.848V34.366V33.366H175.408V34.366ZM176.848 34.366H175.848V35.806H176.848H177.848V34.366H176.848ZM176.848 35.806V34.806H175.426V35.806V36.806H176.848V35.806ZM175.426 35.806H174.426V37.228H175.426H176.426V35.806H175.426ZM175.426 37.228V36.228H173.968V37.228V38.228H175.426V37.228ZM173.968 37.228H174.968V35.806H173.968H172.968V37.228H173.968ZM173.968 35.806V36.806H175.408V35.806V34.806H173.968V35.806ZM175.408 35.806H176.408V34.384H175.408H174.408V35.806H175.408ZM175.408 34.384V33.384H173.968V34.384V35.384H175.408V34.384ZM173.968 34.384H174.968V32.944H173.968H172.968V34.384H173.968ZM173.968 32.944V33.944H175.408V32.944V31.944H173.968V32.944ZM175.408 32.944H174.408V34.366H175.408H176.408V32.944H175.408ZM173.968 32.944V31.944H172.528V32.944V33.944H173.968V32.944ZM172.528 32.944H173.528V31.486H172.528H171.528V32.944H172.528ZM172.528 31.486V32.486H173.968V31.486V30.486H172.528V31.486ZM173.968 31.486H172.968V32.944H173.968H174.968V31.486H173.968ZM171.106 30.064V31.064H172.528V30.064V29.064H171.106V30.064ZM172.528 30.064H171.528V31.486H172.528H173.528V30.064H172.528ZM172.528 31.486V30.486H171.088V31.486V32.486H172.528V31.486ZM171.088 31.486H172.088V30.064H171.088H170.088V31.486H171.088ZM171.088 30.064V29.064H169.666V30.064V31.064H171.088V30.064ZM169.666 30.064H170.666V28.624H169.666H168.666V30.064H169.666ZM169.666 28.624V29.624H171.106V28.624V27.624H169.666V28.624ZM171.106 28.624H170.106V30.064H171.106H172.106V28.624H171.106ZM188.345 32.818V33.818H189.345V32.818H188.345ZM184.025 32.818H183.025V33.818H184.025V32.818ZM184.025 31.36V30.36H183.025V31.36H184.025ZM188.345 31.36H189.345V30.36H188.345V31.36ZM184.025 38.578V39.578H185.025V38.578H184.025ZM182.603 38.578H181.603V39.578H182.603V38.578ZM182.603 35.68V34.68H181.603V35.68H182.603ZM184.025 35.68H185.025V34.68H184.025V35.68ZM188.345 32.818V31.818H187.345V32.818H188.345ZM189.785 32.818H190.785V31.818H189.785V32.818ZM189.785 40V41H190.785V40H189.785ZM184.025 40H183.025V41H184.025V40ZM184.025 38.578V37.578H183.025V38.578H184.025ZM188.345 38.578V39.578H189.345V38.578H188.345ZM188.345 35.68H189.345V34.68H188.345V35.68ZM184.025 35.68H183.025V36.68H184.025V35.68ZM184.025 34.258V33.258H183.025V34.258H184.025ZM188.345 34.258V35.258H189.345V34.258H188.345ZM188.345 32.818V31.818H184.025V32.818V33.818H188.345V32.818ZM184.025 32.818H185.025V31.36H184.025H183.025V32.818H184.025ZM184.025 31.36V32.36H188.345V31.36V30.36H184.025V31.36ZM188.345 31.36H187.345V32.818H188.345H189.345V31.36H188.345ZM184.025 38.578V37.578H182.603V38.578V39.578H184.025V38.578ZM182.603 38.578H183.603V35.68H182.603H181.603V38.578H182.603ZM182.603 35.68V36.68H184.025V35.68V34.68H182.603V35.68ZM184.025 35.68H183.025V38.578H184.025H185.025V35.68H184.025ZM188.345 32.818V33.818H189.785V32.818V31.818H188.345V32.818ZM189.785 32.818H188.785V40H189.785H190.785V32.818H189.785ZM189.785 40V39H184.025V40V41H189.785V40ZM184.025 40H185.025V38.578H184.025H183.025V40H184.025ZM184.025 38.578V39.578H188.345V38.578V37.578H184.025V38.578ZM188.345 38.578H189.345V35.68H188.345H187.345V38.578H188.345ZM188.345 35.68V34.68H184.025V35.68V36.68H188.345V35.68ZM184.025 35.68H185.025V34.258H184.025H183.025V35.68H184.025ZM184.025 34.258V35.258H188.345V34.258V33.258H184.025V34.258ZM188.345 34.258H189.345V32.818H188.345H187.345V34.258H188.345ZM193.025 37.138V38.138H194.025V37.138H193.025ZM191.603 37.138H190.603V38.138H191.603V37.138ZM191.603 31.36V30.36H190.603V31.36H191.603ZM193.025 31.36H194.025V30.36H193.025V31.36ZM195.905 37.138V38.138H196.905V37.138H195.905ZM194.465 37.138H193.465V38.138H194.465V37.138ZM194.465 34.258V33.258H193.465V34.258H194.465ZM195.905 34.258H196.905V33.258H195.905V34.258ZM194.465 40V41H195.465V40H194.465ZM193.025 40H192.025V41H193.025V40ZM193.025 37.138V36.138H192.025V37.138H193.025ZM194.465 37.138H195.465V36.138H194.465V37.138ZM200.225 40V41H201.225V40H200.225ZM198.785 40H197.785V41H198.785V40ZM198.785 37.138V36.138H197.785V37.138H198.785ZM200.225 37.138H201.225V36.138H200.225V37.138ZM201.665 37.138V38.138H202.665V37.138H201.665ZM200.225 37.138H199.225V38.138H200.225V37.138ZM200.225 31.36V30.36H199.225V31.36H200.225ZM201.665 31.36H202.665V30.36H201.665V31.36ZM197.345 34.258V35.258H198.345V34.258H197.345ZM195.905 34.258H194.905V35.258H195.905V34.258ZM195.905 31.36V30.36H194.905V31.36H195.905ZM197.345 31.36H198.345V30.36H197.345V31.36ZM198.785 37.138V38.138H199.785V37.138H198.785ZM197.345 37.138H196.345V38.138H197.345V37.138ZM197.345 34.258V33.258H196.345V34.258H197.345ZM198.785 34.258H199.785V33.258H198.785V34.258ZM193.025 37.138V36.138H191.603V37.138V38.138H193.025V37.138ZM191.603 37.138H192.603V31.36H191.603H190.603V37.138H191.603ZM191.603 31.36V32.36H193.025V31.36V30.36H191.603V31.36ZM193.025 31.36H192.025V37.138H193.025H194.025V31.36H193.025ZM195.905 37.138V36.138H194.465V37.138V38.138H195.905V37.138ZM194.465 37.138H195.465V34.258H194.465H193.465V37.138H194.465ZM194.465 34.258V35.258H195.905V34.258V33.258H194.465V34.258ZM195.905 34.258H194.905V37.138H195.905H196.905V34.258H195.905ZM194.465 40V39H193.025V40V41H194.465V40ZM193.025 40H194.025V37.138H193.025H192.025V40H193.025ZM193.025 37.138V38.138H194.465V37.138V36.138H193.025V37.138ZM194.465 37.138H193.465V40H194.465H195.465V37.138H194.465ZM200.225 40V39H198.785V40V41H200.225V40ZM198.785 40H199.785V37.138H198.785H197.785V40H198.785ZM198.785 37.138V38.138H200.225V37.138V36.138H198.785V37.138ZM200.225 37.138H199.225V40H200.225H201.225V37.138H200.225ZM201.665 37.138V36.138H200.225V37.138V38.138H201.665V37.138ZM200.225 37.138H201.225V31.36H200.225H199.225V37.138H200.225ZM200.225 31.36V32.36H201.665V31.36V30.36H200.225V31.36ZM201.665 31.36H200.665V37.138H201.665H202.665V31.36H201.665ZM197.345 34.258V33.258H195.905V34.258V35.258H197.345V34.258ZM195.905 34.258H196.905V31.36H195.905H194.905V34.258H195.905ZM195.905 31.36V32.36H197.345V31.36V30.36H195.905V31.36ZM197.345 31.36H196.345V34.258H197.345H198.345V31.36H197.345ZM198.785 37.138V36.138H197.345V37.138V38.138H198.785V37.138ZM197.345 37.138H198.345V34.258H197.345H196.345V37.138H197.345ZM197.345 34.258V35.258H198.785V34.258V33.258H197.345V34.258ZM198.785 34.258H197.785V37.138H198.785H199.785V34.258H198.785ZM209.228 40.018V41.018H210.228V40.018H209.228ZM204.908 40.018H203.908V41.018H204.908V40.018ZM204.908 38.578V37.578H203.908V38.578H204.908ZM209.228 38.578H210.228V37.578H209.228V38.578ZM210.668 38.578V39.578H211.668V38.578H210.668ZM209.228 38.578H208.228V39.578H209.228V38.578ZM209.228 37.138V36.138H208.228V37.138H209.228ZM210.668 37.138H211.668V36.138H210.668V37.138ZM209.228 32.818V33.818H210.228V32.818H209.228ZM204.908 32.818H203.908V33.818H204.908V32.818ZM204.908 31.378V30.378H203.908V31.378H204.908ZM209.228 31.378H210.228V30.378H209.228V31.378ZM210.668 35.698V36.698H211.668V35.698H210.668ZM204.908 35.698V34.698H203.908V35.698H204.908ZM204.908 38.578V39.578H205.908V38.578H204.908ZM203.486 38.578H202.486V39.578H203.486V38.578ZM203.486 32.818V31.818H202.486V32.818H203.486ZM204.908 32.818H205.908V31.818H204.908V32.818ZM204.908 34.258H203.908V35.258H204.908V34.258ZM209.228 34.258V35.258H210.228V34.258H209.228ZM209.228 32.818V31.818H208.228V32.818H209.228ZM210.668 32.818H211.668V31.818H210.668V32.818ZM209.228 40.018V39.018H204.908V40.018V41.018H209.228V40.018ZM204.908 40.018H205.908V38.578H204.908H203.908V40.018H204.908ZM204.908 38.578V39.578H209.228V38.578V37.578H204.908V38.578ZM209.228 38.578H208.228V40.018H209.228H210.228V38.578H209.228ZM210.668 38.578V37.578H209.228V38.578V39.578H210.668V38.578ZM209.228 38.578H210.228V37.138H209.228H208.228V38.578H209.228ZM209.228 37.138V38.138H210.668V37.138V36.138H209.228V37.138ZM210.668 37.138H209.668V38.578H210.668H211.668V37.138H210.668ZM209.228 32.818V31.818H204.908V32.818V33.818H209.228V32.818ZM204.908 32.818H205.908V31.378H204.908H203.908V32.818H204.908ZM204.908 31.378V32.378H209.228V31.378V30.378H204.908V31.378ZM209.228 31.378H208.228V32.818H209.228H210.228V31.378H209.228ZM210.668 35.698V34.698H204.908V35.698V36.698H210.668V35.698ZM204.908 35.698H203.908V38.578H204.908H205.908V35.698H204.908ZM204.908 38.578V37.578H203.486V38.578V39.578H204.908V38.578ZM203.486 38.578H204.486V32.818H203.486H202.486V38.578H203.486ZM203.486 32.818V33.818H204.908V32.818V31.818H203.486V32.818ZM204.908 32.818H203.908V34.258H204.908H205.908V32.818H204.908ZM204.908 34.258V35.258H209.228V34.258V33.258H204.908V34.258ZM209.228 34.258H210.228V32.818H209.228H208.228V34.258H209.228ZM209.228 32.818V33.818H210.668V32.818V31.818H209.228V32.818ZM210.668 32.818H209.668V35.698H210.668H211.668V32.818H210.668ZM218.228 38.578V39.578H219.228V38.578H218.228ZM216.806 38.578H215.806V39.578H216.806V38.578ZM216.806 37.138V36.138H215.806V37.138H216.806ZM218.228 37.138H219.228V36.138H218.228V37.138ZM216.788 37.138V38.138H217.788V37.138H216.788ZM215.348 37.138H214.348V38.138H215.348V37.138ZM215.348 35.698V34.698H214.348V35.698H215.348ZM216.788 35.698H217.788V34.698H216.788V35.698ZM213.908 38.578V39.578H214.908V38.578H213.908ZM212.486 38.578H211.486V39.578H212.486V38.578ZM212.486 37.138V36.138H211.486V37.138H212.486ZM213.908 37.138H214.908V36.138H213.908V37.138ZM216.806 40.018V41.018H217.806V40.018H216.806ZM213.908 40.018H212.908V41.018H213.908V40.018ZM213.908 38.578V37.578H212.908V38.578H213.908ZM216.806 38.578H217.806V37.578H216.806V38.578ZM215.348 35.698V36.698H216.348V35.698H215.348ZM213.908 35.698H212.908V36.698H213.908V35.698ZM213.908 34.258V33.258H212.908V34.258H213.908ZM215.348 34.258H216.348V33.258H215.348V34.258ZM218.228 34.258V35.258H219.228V34.258H218.228ZM216.806 34.258H215.806V35.258H216.806V34.258ZM216.806 32.818V31.818H215.806V32.818H216.806ZM218.228 32.818H219.228V31.818H218.228V32.818ZM216.806 32.818V33.818H217.806V32.818H216.806ZM213.908 32.818H212.908V33.818H213.908V32.818ZM213.908 31.378V30.378H212.908V31.378H213.908ZM216.806 31.378H217.806V30.378H216.806V31.378ZM213.908 34.258V35.258H214.908V34.258H213.908ZM212.486 34.258H211.486V35.258H212.486V34.258ZM212.486 32.818V31.818H211.486V32.818H212.486ZM213.908 32.818H214.908V31.818H213.908V32.818ZM218.228 38.578V37.578H216.806V38.578V39.578H218.228V38.578ZM216.806 38.578H217.806V37.138H216.806H215.806V38.578H216.806ZM216.806 37.138V38.138H218.228V37.138V36.138H216.806V37.138ZM218.228 37.138H217.228V38.578H218.228H219.228V37.138H218.228ZM216.788 37.138V36.138H215.348V37.138V38.138H216.788V37.138ZM215.348 37.138H216.348V35.698H215.348H214.348V37.138H215.348ZM215.348 35.698V36.698H216.788V35.698V34.698H215.348V35.698ZM216.788 35.698H215.788V37.138H216.788H217.788V35.698H216.788ZM213.908 38.578V37.578H212.486V38.578V39.578H213.908V38.578ZM212.486 38.578H213.486V37.138H212.486H211.486V38.578H212.486ZM212.486 37.138V38.138H213.908V37.138V36.138H212.486V37.138ZM213.908 37.138H212.908V38.578H213.908H214.908V37.138H213.908ZM216.806 40.018V39.018H213.908V40.018V41.018H216.806V40.018ZM213.908 40.018H214.908V38.578H213.908H212.908V40.018H213.908ZM213.908 38.578V39.578H216.806V38.578V37.578H213.908V38.578ZM216.806 38.578H215.806V40.018H216.806H217.806V38.578H216.806ZM215.348 35.698V34.698H213.908V35.698V36.698H215.348V35.698ZM213.908 35.698H214.908V34.258H213.908H212.908V35.698H213.908ZM213.908 34.258V35.258H215.348V34.258V33.258H213.908V34.258ZM215.348 34.258H214.348V35.698H215.348H216.348V34.258H215.348ZM218.228 34.258V33.258H216.806V34.258V35.258H218.228V34.258ZM216.806 34.258H217.806V32.818H216.806H215.806V34.258H216.806ZM216.806 32.818V33.818H218.228V32.818V31.818H216.806V32.818ZM218.228 32.818H217.228V34.258H218.228H219.228V32.818H218.228ZM216.806 32.818V31.818H213.908V32.818V33.818H216.806V32.818ZM213.908 32.818H214.908V31.378H213.908H212.908V32.818H213.908ZM213.908 31.378V32.378H216.806V31.378V30.378H213.908V31.378ZM216.806 31.378H215.806V32.818H216.806H217.806V31.378H216.806ZM213.908 34.258V33.258H212.486V34.258V35.258H213.908V34.258ZM212.486 34.258H213.486V32.818H212.486H211.486V34.258H212.486ZM212.486 32.818V33.818H213.908V32.818V31.818H212.486V32.818ZM213.908 32.818H212.908V34.258H213.908H214.908V32.818H213.908ZM225.787 40.018V41.018H226.787V40.018H225.787ZM221.467 40.018H220.467V41.018H221.467V40.018ZM221.467 38.578V37.578H220.467V38.578H221.467ZM225.787 38.578H226.787V37.578H225.787V38.578ZM221.467 38.578V39.578H222.467V38.578H221.467ZM220.045 38.578H219.045V39.578H220.045V38.578ZM220.045 32.818V31.818H219.045V32.818H220.045ZM221.467 32.818H222.467V31.818H221.467V32.818ZM225.787 32.818V33.818H226.787V32.818H225.787ZM221.467 32.818H220.467V33.818H221.467V32.818ZM221.467 31.378V30.378H220.467V31.378H221.467ZM225.787 31.378H226.787V30.378H225.787V31.378ZM227.227 38.578V39.578H228.227V38.578H227.227ZM225.787 38.578H224.787V39.578H225.787V38.578ZM225.787 32.818V31.818H224.787V32.818H225.787ZM227.227 32.818H228.227V31.818H227.227V32.818ZM225.787 40.018V39.018H221.467V40.018V41.018H225.787V40.018ZM221.467 40.018H222.467V38.578H221.467H220.467V40.018H221.467ZM221.467 38.578V39.578H225.787V38.578V37.578H221.467V38.578ZM225.787 38.578H224.787V40.018H225.787H226.787V38.578H225.787ZM221.467 38.578V37.578H220.045V38.578V39.578H221.467V38.578ZM220.045 38.578H221.045V32.818H220.045H219.045V38.578H220.045ZM220.045 32.818V33.818H221.467V32.818V31.818H220.045V32.818ZM221.467 32.818H220.467V38.578H221.467H222.467V32.818H221.467ZM225.787 32.818V31.818H221.467V32.818V33.818H225.787V32.818ZM221.467 32.818H222.467V31.378H221.467H220.467V32.818H221.467ZM221.467 31.378V32.378H225.787V31.378V30.378H221.467V31.378ZM225.787 31.378H224.787V32.818H225.787H226.787V31.378H225.787ZM227.227 38.578V37.578H225.787V38.578V39.578H227.227V38.578ZM225.787 38.578H226.787V32.818H225.787H224.787V38.578H225.787ZM225.787 32.818V33.818H227.227V32.818V31.818H225.787V32.818ZM227.227 32.818H226.227V38.578H227.227H228.227V32.818H227.227ZM234.787 40.018V41.018H235.787V40.018H234.787ZM233.365 40.018H232.365V41.018H233.365V40.018ZM233.365 32.818V31.818H232.365V32.818H233.365ZM234.787 32.818H235.787V31.818H234.787V32.818ZM229.045 31.378V30.378H228.045V31.378H229.045ZM233.365 31.378H234.365V30.378H233.365V31.378ZM233.365 32.818V33.818H234.365V32.818H233.365ZM230.467 32.818V31.818H229.467V32.818H230.467ZM230.467 40V41H231.467V40H230.467ZM229.045 40H228.045V41H229.045V40ZM239.107 40.018V41.018H240.107V40.018H239.107ZM237.667 40.018H236.667V41.018H237.667V40.018ZM237.667 32.818V31.818H236.667V32.818H237.667ZM239.107 32.818H240.107V31.818H239.107V32.818ZM237.667 32.818V33.818H238.667V32.818H237.667ZM234.787 32.818H233.787V33.818H234.787V32.818ZM234.787 31.378V30.378H233.787V31.378H234.787ZM237.667 31.378H238.667V30.378H237.667V31.378ZM234.787 40.018V39.018H233.365V40.018V41.018H234.787V40.018ZM233.365 40.018H234.365V32.818H233.365H232.365V40.018H233.365ZM233.365 32.818V33.818H234.787V32.818V31.818H233.365V32.818ZM234.787 32.818H233.787V40.018H234.787H235.787V32.818H234.787ZM229.045 31.378V32.378H233.365V31.378V30.378H229.045V31.378ZM233.365 31.378H232.365V32.818H233.365H234.365V31.378H233.365ZM233.365 32.818V31.818H230.467V32.818V33.818H233.365V32.818ZM230.467 32.818H229.467V40H230.467H231.467V32.818H230.467ZM230.467 40V39H229.045V40V41H230.467V40ZM229.045 40H230.045V31.378H229.045H228.045V40H229.045ZM239.107 40.018V39.018H237.667V40.018V41.018H239.107V40.018ZM237.667 40.018H238.667V32.818H237.667H236.667V40.018H237.667ZM237.667 32.818V33.818H239.107V32.818V31.818H237.667V32.818ZM239.107 32.818H238.107V40.018H239.107H240.107V32.818H239.107ZM237.667 32.818V31.818H234.787V32.818V33.818H237.667V32.818ZM234.787 32.818H235.787V31.378H234.787H233.787V32.818H234.787ZM234.787 31.378V32.378H237.667V31.378V30.378H234.787V31.378ZM237.667 31.378H236.667V32.818H237.667H238.667V31.378H237.667ZM246.669 40.018V41.018H247.669V40.018H246.669ZM242.349 40.018H241.349V41.018H242.349V40.018ZM242.349 38.578V37.578H241.349V38.578H242.349ZM246.669 38.578H247.669V37.578H246.669V38.578ZM248.109 38.578V39.578H249.109V38.578H248.109ZM246.669 38.578H245.669V39.578H246.669V38.578ZM246.669 37.138V36.138H245.669V37.138H246.669ZM248.109 37.138H249.109V36.138H248.109V37.138ZM246.669 32.818V33.818H247.669V32.818H246.669ZM242.349 32.818H241.349V33.818H242.349V32.818ZM242.349 31.378V30.378H241.349V31.378H242.349ZM246.669 31.378H247.669V30.378H246.669V31.378ZM248.109 35.698V36.698H249.109V35.698H248.109ZM242.349 35.698V34.698H241.349V35.698H242.349ZM242.349 38.578V39.578H243.349V38.578H242.349ZM240.927 38.578H239.927V39.578H240.927V38.578ZM240.927 32.818V31.818H239.927V32.818H240.927ZM242.349 32.818H243.349V31.818H242.349V32.818ZM242.349 34.258H241.349V35.258H242.349V34.258ZM246.669 34.258V35.258H247.669V34.258H246.669ZM246.669 32.818V31.818H245.669V32.818H246.669ZM248.109 32.818H249.109V31.818H248.109V32.818ZM246.669 40.018V39.018H242.349V40.018V41.018H246.669V40.018ZM242.349 40.018H243.349V38.578H242.349H241.349V40.018H242.349ZM242.349 38.578V39.578H246.669V38.578V37.578H242.349V38.578ZM246.669 38.578H245.669V40.018H246.669H247.669V38.578H246.669ZM248.109 38.578V37.578H246.669V38.578V39.578H248.109V38.578ZM246.669 38.578H247.669V37.138H246.669H245.669V38.578H246.669ZM246.669 37.138V38.138H248.109V37.138V36.138H246.669V37.138ZM248.109 37.138H247.109V38.578H248.109H249.109V37.138H248.109ZM246.669 32.818V31.818H242.349V32.818V33.818H246.669V32.818ZM242.349 32.818H243.349V31.378H242.349H241.349V32.818H242.349ZM242.349 31.378V32.378H246.669V31.378V30.378H242.349V31.378ZM246.669 31.378H245.669V32.818H246.669H247.669V31.378H246.669ZM248.109 35.698V34.698H242.349V35.698V36.698H248.109V35.698ZM242.349 35.698H241.349V38.578H242.349H243.349V35.698H242.349ZM242.349 38.578V37.578H240.927V38.578V39.578H242.349V38.578ZM240.927 38.578H241.927V32.818H240.927H239.927V38.578H240.927ZM240.927 32.818V33.818H242.349V32.818V31.818H240.927V32.818ZM242.349 32.818H241.349V34.258H242.349H243.349V32.818H242.349ZM242.349 34.258V35.258H246.669V34.258V33.258H242.349V34.258ZM246.669 34.258H247.669V32.818H246.669H245.669V34.258H246.669ZM246.669 32.818V33.818H248.109V32.818V31.818H246.669V32.818ZM248.109 32.818H247.109V35.698H248.109H249.109V32.818H248.109ZM249.927 35.23V34.23H248.927V35.23H249.927ZM257.109 35.23H258.109V34.23H257.109V35.23ZM257.109 36.652V37.652H258.109V36.652H257.109ZM249.927 36.652H248.927V37.652H249.927V36.652ZM249.927 35.23V36.23H257.109V35.23V34.23H249.927V35.23ZM257.109 35.23H256.109V36.652H257.109H258.109V35.23H257.109ZM257.109 36.652V35.652H249.927V36.652V37.652H257.109V36.652ZM249.927 36.652H250.927V35.23H249.927H248.927V36.652H249.927ZM264.652 40.018V41.018H265.652V40.018H264.652ZM260.332 40.018H259.332V41.018H260.332V40.018ZM260.332 38.578V37.578H259.332V38.578H260.332ZM264.652 38.578H265.652V37.578H264.652V38.578ZM260.332 38.578V39.578H261.332V38.578H260.332ZM258.91 38.578H257.91V39.578H258.91V38.578ZM258.91 32.818V31.818H257.91V32.818H258.91ZM260.332 32.818H261.332V31.818H260.332V32.818ZM264.652 32.818V33.818H265.652V32.818H264.652ZM260.332 32.818H259.332V33.818H260.332V32.818ZM260.332 31.378V30.378H259.332V31.378H260.332ZM264.652 31.378H265.652V30.378H264.652V31.378ZM266.092 38.578V39.578H267.092V38.578H266.092ZM264.652 38.578H263.652V39.578H264.652V38.578ZM264.652 32.818V31.818H263.652V32.818H264.652ZM266.092 32.818H267.092V31.818H266.092V32.818ZM264.652 40.018V39.018H260.332V40.018V41.018H264.652V40.018ZM260.332 40.018H261.332V38.578H260.332H259.332V40.018H260.332ZM260.332 38.578V39.578H264.652V38.578V37.578H260.332V38.578ZM264.652 38.578H263.652V40.018H264.652H265.652V38.578H264.652ZM260.332 38.578V37.578H258.91V38.578V39.578H260.332V38.578ZM258.91 38.578H259.91V32.818H258.91H257.91V38.578H258.91ZM258.91 32.818V33.818H260.332V32.818V31.818H258.91V32.818ZM260.332 32.818H259.332V38.578H260.332H261.332V32.818H260.332ZM264.652 32.818V31.818H260.332V32.818V33.818H264.652V32.818ZM260.332 32.818H261.332V31.378H260.332H259.332V32.818H260.332ZM260.332 31.378V32.378H264.652V31.378V30.378H260.332V31.378ZM264.652 31.378H263.652V32.818H264.652H265.652V31.378H264.652ZM266.092 38.578V37.578H264.652V38.578V39.578H266.092V38.578ZM264.652 38.578H265.652V32.818H264.652H263.652V38.578H264.652ZM264.652 32.818V33.818H266.092V32.818V31.818H264.652V32.818ZM266.092 32.818H265.092V38.578H266.092H267.092V32.818H266.092ZM269.332 32.818V31.818H268.332V32.818H269.332ZM269.332 38.578H268.332V39.578H269.332V38.578ZM273.652 38.578H274.652V37.578H273.652V38.578ZM273.652 40V41H274.652V40H273.652ZM269.332 40V39H268.332V40H269.332ZM269.332 42.88V43.88H270.332V42.88H269.332ZM267.91 42.88H266.91V43.88H267.91V42.88ZM267.91 31.378V30.378H266.91V31.378H267.91ZM273.652 31.378H274.652V30.378H273.652V31.378ZM273.652 32.818V33.818H274.652V32.818H273.652ZM275.092 38.578V39.578H276.092V38.578H275.092ZM273.652 38.578H272.652V39.578H273.652V38.578ZM273.652 32.818V31.818H272.652V32.818H273.652ZM275.092 32.818H276.092V31.818H275.092V32.818ZM269.332 32.818H268.332V38.578H269.332H270.332V32.818H269.332ZM269.332 38.578V39.578H273.652V38.578V37.578H269.332V38.578ZM273.652 38.578H272.652V40H273.652H274.652V38.578H273.652ZM273.652 40V39H269.332V40V41H273.652V40ZM269.332 40H268.332V42.88H269.332H270.332V40H269.332ZM269.332 42.88V41.88H267.91V42.88V43.88H269.332V42.88ZM267.91 42.88H268.91V31.378H267.91H266.91V42.88H267.91ZM267.91 31.378V32.378H273.652V31.378V30.378H267.91V31.378ZM273.652 31.378H272.652V32.818H273.652H274.652V31.378H273.652ZM273.652 32.818V31.818H269.332V32.818V33.818H273.652V32.818ZM275.092 38.578V37.578H273.652V38.578V39.578H275.092V38.578ZM273.652 38.578H274.652V32.818H273.652H272.652V38.578H273.652ZM273.652 32.818V33.818H275.092V32.818V31.818H273.652V32.818ZM275.092 32.818H274.092V38.578H275.092H276.092V32.818H275.092ZM282.652 40.018V41.018H283.652V40.018H282.652ZM278.332 40.018H277.332V41.018H278.332V40.018ZM278.332 38.578V37.578H277.332V38.578H278.332ZM282.652 38.578H283.652V37.578H282.652V38.578ZM284.092 38.578V39.578H285.092V38.578H284.092ZM282.652 38.578H281.652V39.578H282.652V38.578ZM282.652 37.138V36.138H281.652V37.138H282.652ZM284.092 37.138H285.092V36.138H284.092V37.138ZM282.652 32.818V33.818H283.652V32.818H282.652ZM278.332 32.818H277.332V33.818H278.332V32.818ZM278.332 31.378V30.378H277.332V31.378H278.332ZM282.652 31.378H283.652V30.378H282.652V31.378ZM284.092 35.698V36.698H285.092V35.698H284.092ZM278.332 35.698V34.698H277.332V35.698H278.332ZM278.332 38.578V39.578H279.332V38.578H278.332ZM276.91 38.578H275.91V39.578H276.91V38.578ZM276.91 32.818V31.818H275.91V32.818H276.91ZM278.332 32.818H279.332V31.818H278.332V32.818ZM278.332 34.258H277.332V35.258H278.332V34.258ZM282.652 34.258V35.258H283.652V34.258H282.652ZM282.652 32.818V31.818H281.652V32.818H282.652ZM284.092 32.818H285.092V31.818H284.092V32.818ZM282.652 40.018V39.018H278.332V40.018V41.018H282.652V40.018ZM278.332 40.018H279.332V38.578H278.332H277.332V40.018H278.332ZM278.332 38.578V39.578H282.652V38.578V37.578H278.332V38.578ZM282.652 38.578H281.652V40.018H282.652H283.652V38.578H282.652ZM284.092 38.578V37.578H282.652V38.578V39.578H284.092V38.578ZM282.652 38.578H283.652V37.138H282.652H281.652V38.578H282.652ZM282.652 37.138V38.138H284.092V37.138V36.138H282.652V37.138ZM284.092 37.138H283.092V38.578H284.092H285.092V37.138H284.092ZM282.652 32.818V31.818H278.332V32.818V33.818H282.652V32.818ZM278.332 32.818H279.332V31.378H278.332H277.332V32.818H278.332ZM278.332 31.378V32.378H282.652V31.378V30.378H278.332V31.378ZM282.652 31.378H281.652V32.818H282.652H283.652V31.378H282.652ZM284.092 35.698V34.698H278.332V35.698V36.698H284.092V35.698ZM278.332 35.698H277.332V38.578H278.332H279.332V35.698H278.332ZM278.332 38.578V37.578H276.91V38.578V39.578H278.332V38.578ZM276.91 38.578H277.91V32.818H276.91H275.91V38.578H276.91ZM276.91 32.818V33.818H278.332V32.818V31.818H276.91V32.818ZM278.332 32.818H277.332V34.258H278.332H279.332V32.818H278.332ZM278.332 34.258V35.258H282.652V34.258V33.258H278.332V34.258ZM282.652 34.258H283.652V32.818H282.652H281.652V34.258H282.652ZM282.652 32.818V33.818H284.092V32.818V31.818H282.652V32.818ZM284.092 32.818H283.092V35.698H284.092H285.092V32.818H284.092ZM287.332 31.378H288.332V30.378H287.332V31.378ZM287.332 32.818H286.332V33.818H287.332V32.818ZM288.772 32.818H289.772V31.818H288.772V32.818ZM288.772 34.258V35.258H289.772V34.258H288.772ZM287.332 34.258V33.258H286.332V34.258H287.332ZM287.332 40V41H288.332V40H287.332ZM285.91 40H284.91V41H285.91V40ZM285.91 31.378V30.378H284.91V31.378H285.91ZM293.092 40.018V41.018H294.092V40.018H293.092ZM291.652 40.018H290.652V41.018H291.652V40.018ZM291.652 32.818V31.818H290.652V32.818H291.652ZM293.092 32.818H294.092V31.818H293.092V32.818ZM291.652 32.818V33.818H292.652V32.818H291.652ZM288.772 32.818H287.772V33.818H288.772V32.818ZM288.772 31.378V30.378H287.772V31.378H288.772ZM291.652 31.378H292.652V30.378H291.652V31.378ZM287.332 31.378H286.332V32.818H287.332H288.332V31.378H287.332ZM287.332 32.818V33.818H288.772V32.818V31.818H287.332V32.818ZM288.772 32.818H287.772V34.258H288.772H289.772V32.818H288.772ZM288.772 34.258V33.258H287.332V34.258V35.258H288.772V34.258ZM287.332 34.258H286.332V40H287.332H288.332V34.258H287.332ZM287.332 40V39H285.91V40V41H287.332V40ZM285.91 40H286.91V31.378H285.91H284.91V40H285.91ZM285.91 31.378V32.378H287.332V31.378V30.378H285.91V31.378ZM293.092 40.018V39.018H291.652V40.018V41.018H293.092V40.018ZM291.652 40.018H292.652V32.818H291.652H290.652V40.018H291.652ZM291.652 32.818V33.818H293.092V32.818V31.818H291.652V32.818ZM293.092 32.818H292.092V40.018H293.092H294.092V32.818H293.092ZM291.652 32.818V31.818H288.772V32.818V33.818H291.652V32.818ZM288.772 32.818H289.772V31.378H288.772H287.772V32.818H288.772ZM288.772 31.378V32.378H291.652V31.378V30.378H288.772V31.378ZM291.652 31.378H290.652V32.818H291.652H292.652V31.378H291.652ZM300.652 38.578V39.578H301.652V38.578H300.652ZM299.23 38.578H298.23V39.578H299.23V38.578ZM299.23 37.138V36.138H298.23V37.138H299.23ZM300.652 37.138H301.652V36.138H300.652V37.138ZM299.212 37.138V38.138H300.212V37.138H299.212ZM297.772 37.138H296.772V38.138H297.772V37.138ZM297.772 35.698V34.698H296.772V35.698H297.772ZM299.212 35.698H300.212V34.698H299.212V35.698ZM296.332 38.578V39.578H297.332V38.578H296.332ZM294.91 38.578H293.91V39.578H294.91V38.578ZM294.91 37.138V36.138H293.91V37.138H294.91ZM296.332 37.138H297.332V36.138H296.332V37.138ZM299.23 40.018V41.018H300.23V40.018H299.23ZM296.332 40.018H295.332V41.018H296.332V40.018ZM296.332 38.578V37.578H295.332V38.578H296.332ZM299.23 38.578H300.23V37.578H299.23V38.578ZM297.772 35.698V36.698H298.772V35.698H297.772ZM296.332 35.698H295.332V36.698H296.332V35.698ZM296.332 34.258V33.258H295.332V34.258H296.332ZM297.772 34.258H298.772V33.258H297.772V34.258ZM300.652 34.258V35.258H301.652V34.258H300.652ZM299.23 34.258H298.23V35.258H299.23V34.258ZM299.23 32.818V31.818H298.23V32.818H299.23ZM300.652 32.818H301.652V31.818H300.652V32.818ZM299.23 32.818V33.818H300.23V32.818H299.23ZM296.332 32.818H295.332V33.818H296.332V32.818ZM296.332 31.378V30.378H295.332V31.378H296.332ZM299.23 31.378H300.23V30.378H299.23V31.378ZM296.332 34.258V35.258H297.332V34.258H296.332ZM294.91 34.258H293.91V35.258H294.91V34.258ZM294.91 32.818V31.818H293.91V32.818H294.91ZM296.332 32.818H297.332V31.818H296.332V32.818ZM300.652 38.578V37.578H299.23V38.578V39.578H300.652V38.578ZM299.23 38.578H300.23V37.138H299.23H298.23V38.578H299.23ZM299.23 37.138V38.138H300.652V37.138V36.138H299.23V37.138ZM300.652 37.138H299.652V38.578H300.652H301.652V37.138H300.652ZM299.212 37.138V36.138H297.772V37.138V38.138H299.212V37.138ZM297.772 37.138H298.772V35.698H297.772H296.772V37.138H297.772ZM297.772 35.698V36.698H299.212V35.698V34.698H297.772V35.698ZM299.212 35.698H298.212V37.138H299.212H300.212V35.698H299.212ZM296.332 38.578V37.578H294.91V38.578V39.578H296.332V38.578ZM294.91 38.578H295.91V37.138H294.91H293.91V38.578H294.91ZM294.91 37.138V38.138H296.332V37.138V36.138H294.91V37.138ZM296.332 37.138H295.332V38.578H296.332H297.332V37.138H296.332ZM299.23 40.018V39.018H296.332V40.018V41.018H299.23V40.018ZM296.332 40.018H297.332V38.578H296.332H295.332V40.018H296.332ZM296.332 38.578V39.578H299.23V38.578V37.578H296.332V38.578ZM299.23 38.578H298.23V40.018H299.23H300.23V38.578H299.23ZM297.772 35.698V34.698H296.332V35.698V36.698H297.772V35.698ZM296.332 35.698H297.332V34.258H296.332H295.332V35.698H296.332ZM296.332 34.258V35.258H297.772V34.258V33.258H296.332V34.258ZM297.772 34.258H296.772V35.698H297.772H298.772V34.258H297.772ZM300.652 34.258V33.258H299.23V34.258V35.258H300.652V34.258ZM299.23 34.258H300.23V32.818H299.23H298.23V34.258H299.23ZM299.23 32.818V33.818H300.652V32.818V31.818H299.23V32.818ZM300.652 32.818H299.652V34.258H300.652H301.652V32.818H300.652ZM299.23 32.818V31.818H296.332V32.818V33.818H299.23V32.818ZM296.332 32.818H297.332V31.378H296.332H295.332V32.818H296.332ZM296.332 31.378V32.378H299.23V31.378V30.378H296.332V31.378ZM299.23 31.378H298.23V32.818H299.23H300.23V31.378H299.23ZM296.332 34.258V33.258H294.91V34.258V35.258H296.332V34.258ZM294.91 34.258H295.91V32.818H294.91H293.91V34.258H294.91ZM294.91 32.818V33.818H296.332V32.818V31.818H294.91V32.818ZM296.332 32.818H295.332V34.258H296.332H297.332V32.818H296.332ZM308.21 40.018V41.018H309.21V40.018H308.21ZM303.89 40.018H302.89V41.018H303.89V40.018ZM303.89 38.578V37.578H302.89V38.578H303.89ZM308.21 38.578H309.21V37.578H308.21V38.578ZM303.89 38.578V39.578H304.89V38.578H303.89ZM302.468 38.578H301.468V39.578H302.468V38.578ZM302.468 32.818V31.818H301.468V32.818H302.468ZM303.89 32.818H304.89V31.818H303.89V32.818ZM308.21 32.818V33.818H309.21V32.818H308.21ZM303.89 32.818H302.89V33.818H303.89V32.818ZM303.89 31.378V30.378H302.89V31.378H303.89ZM308.21 31.378H309.21V30.378H308.21V31.378ZM309.65 38.578V39.578H310.65V38.578H309.65ZM308.21 38.578H307.21V39.578H308.21V38.578ZM308.21 32.818V31.818H307.21V32.818H308.21ZM309.65 32.818H310.65V31.818H309.65V32.818ZM308.21 40.018V39.018H303.89V40.018V41.018H308.21V40.018ZM303.89 40.018H304.89V38.578H303.89H302.89V40.018H303.89ZM303.89 38.578V39.578H308.21V38.578V37.578H303.89V38.578ZM308.21 38.578H307.21V40.018H308.21H309.21V38.578H308.21ZM303.89 38.578V37.578H302.468V38.578V39.578H303.89V38.578ZM302.468 38.578H303.468V32.818H302.468H301.468V38.578H302.468ZM302.468 32.818V33.818H303.89V32.818V31.818H302.468V32.818ZM303.89 32.818H302.89V38.578H303.89H304.89V32.818H303.89ZM308.21 32.818V31.818H303.89V32.818V33.818H308.21V32.818ZM303.89 32.818H304.89V31.378H303.89H302.89V32.818H303.89ZM303.89 31.378V32.378H308.21V31.378V30.378H303.89V31.378ZM308.21 31.378H307.21V32.818H308.21H309.21V31.378H308.21ZM309.65 38.578V37.578H308.21V38.578V39.578H309.65V38.578ZM308.21 38.578H309.21V32.818H308.21H307.21V38.578H308.21ZM308.21 32.818V33.818H309.65V32.818V31.818H308.21V32.818ZM309.65 32.818H308.65V38.578H309.65H310.65V32.818H309.65ZM315.788 40.018V41.018H316.788V40.018H315.788ZM312.89 40.018H311.89V41.018H312.89V40.018ZM312.89 38.578V37.578H311.89V38.578H312.89ZM315.788 38.578H316.788V37.578H315.788V38.578ZM312.89 38.578V39.578H313.89V38.578H312.89ZM311.468 38.578H310.468V39.578H311.468V38.578ZM311.468 31.378V30.378H310.468V31.378H311.468ZM312.89 31.378H313.89V30.378H312.89V31.378ZM317.21 31.378V30.378H316.21V31.378H317.21ZM318.65 31.378H319.65V30.378H318.65V31.378ZM318.65 40V41H319.65V40H318.65ZM317.21 40H316.21V41H317.21V40ZM317.21 38.578H318.21V37.578H317.21V38.578ZM315.77 38.578H314.77V39.578H315.77V38.578ZM315.77 37.138V36.138H314.77V37.138H315.77ZM317.21 37.138V38.138H318.21V37.138H317.21ZM315.788 40.018V39.018H312.89V40.018V41.018H315.788V40.018ZM312.89 40.018H313.89V38.578H312.89H311.89V40.018H312.89ZM312.89 38.578V39.578H315.788V38.578V37.578H312.89V38.578ZM315.788 38.578H314.788V40.018H315.788H316.788V38.578H315.788ZM312.89 38.578V37.578H311.468V38.578V39.578H312.89V38.578ZM311.468 38.578H312.468V31.378H311.468H310.468V38.578H311.468ZM311.468 31.378V32.378H312.89V31.378V30.378H311.468V31.378ZM312.89 31.378H311.89V38.578H312.89H313.89V31.378H312.89ZM317.21 31.378V32.378H318.65V31.378V30.378H317.21V31.378ZM318.65 31.378H317.65V40H318.65H319.65V31.378H318.65ZM318.65 40V39H317.21V40V41H318.65V40ZM317.21 40H318.21V38.578H317.21H316.21V40H317.21ZM317.21 38.578V37.578H315.77V38.578V39.578H317.21V38.578ZM315.77 38.578H316.77V37.138H315.77H314.77V38.578H315.77ZM315.77 37.138V38.138H317.21V37.138V36.138H315.77V37.138ZM317.21 37.138H318.21V31.378H317.21H316.21V37.138H317.21ZM320.468 31.36V30.36H319.468V31.36H320.468ZM323.33 31.36H324.33V30.36H323.33V31.36ZM323.33 32.818V33.818H324.33V32.818H323.33ZM321.89 32.818V31.818H320.89V32.818H321.89ZM321.89 40V41H322.89V40H321.89ZM320.468 40H319.468V41H320.468V40ZM320.468 31.36V32.36H323.33V31.36V30.36H320.468V31.36ZM323.33 31.36H322.33V32.818H323.33H324.33V31.36H323.33ZM323.33 32.818V31.818H321.89V32.818V33.818H323.33V32.818ZM321.89 32.818H320.89V40H321.89H322.89V32.818H321.89ZM321.89 40V39H320.468V40V41H321.89V40ZM320.468 40H321.468V31.36H320.468H319.468V40H320.468ZM332.326 38.578V39.578H333.326V38.578H332.326ZM330.886 38.578H329.886V39.578H330.886V38.578ZM330.886 37.138V36.138H329.886V37.138H330.886ZM332.326 37.138H333.326V36.138H332.326V37.138ZM326.566 38.578V39.578H327.566V38.578H326.566ZM325.144 38.578H324.144V39.578H325.144V38.578ZM325.144 32.818V31.818H324.144V32.818H325.144ZM326.566 32.818H327.566V31.818H326.566V32.818ZM330.886 40.018V41.018H331.886V40.018H330.886ZM326.566 40.018H325.566V41.018H326.566V40.018ZM326.566 38.578V37.578H325.566V38.578H326.566ZM330.886 38.578H331.886V37.578H330.886V38.578ZM330.886 32.818V33.818H331.886V32.818H330.886ZM326.566 32.818H325.566V33.818H326.566V32.818ZM326.566 31.378V30.378H325.566V31.378H326.566ZM330.886 31.378H331.886V30.378H330.886V31.378ZM332.326 34.258V35.258H333.326V34.258H332.326ZM330.886 34.258H329.886V35.258H330.886V34.258ZM330.886 32.818V31.818H329.886V32.818H330.886ZM332.326 32.818H333.326V31.818H332.326V32.818ZM332.326 38.578V37.578H330.886V38.578V39.578H332.326V38.578ZM330.886 38.578H331.886V37.138H330.886H329.886V38.578H330.886ZM330.886 37.138V38.138H332.326V37.138V36.138H330.886V37.138ZM332.326 37.138H331.326V38.578H332.326H333.326V37.138H332.326ZM326.566 38.578V37.578H325.144V38.578V39.578H326.566V38.578ZM325.144 38.578H326.144V32.818H325.144H324.144V38.578H325.144ZM325.144 32.818V33.818H326.566V32.818V31.818H325.144V32.818ZM326.566 32.818H325.566V38.578H326.566H327.566V32.818H326.566ZM330.886 40.018V39.018H326.566V40.018V41.018H330.886V40.018ZM326.566 40.018H327.566V38.578H326.566H325.566V40.018H326.566ZM326.566 38.578V39.578H330.886V38.578V37.578H326.566V38.578ZM330.886 38.578H329.886V40.018H330.886H331.886V38.578H330.886ZM330.886 32.818V31.818H326.566V32.818V33.818H330.886V32.818ZM326.566 32.818H327.566V31.378H326.566H325.566V32.818H326.566ZM326.566 31.378V32.378H330.886V31.378V30.378H326.566V31.378ZM330.886 31.378H329.886V32.818H330.886H331.886V31.378H330.886ZM332.326 34.258V33.258H330.886V34.258V35.258H332.326V34.258ZM330.886 34.258H331.886V32.818H330.886H329.886V34.258H330.886ZM330.886 32.818V33.818H332.326V32.818V31.818H330.886V32.818ZM332.326 32.818H331.326V34.258H332.326H333.326V32.818H332.326ZM339.886 40.018V41.018H340.886V40.018H339.886ZM335.566 40.018H334.566V41.018H335.566V40.018ZM335.566 38.578V37.578H334.566V38.578H335.566ZM339.886 38.578H340.886V37.578H339.886V38.578ZM341.326 38.578V39.578H342.326V38.578H341.326ZM339.886 38.578H338.886V39.578H339.886V38.578ZM339.886 37.138V36.138H338.886V37.138H339.886ZM341.326 37.138H342.326V36.138H341.326V37.138ZM339.886 32.818V33.818H340.886V32.818H339.886ZM335.566 32.818H334.566V33.818H335.566V32.818ZM335.566 31.378V30.378H334.566V31.378H335.566ZM339.886 31.378H340.886V30.378H339.886V31.378ZM341.326 35.698V36.698H342.326V35.698H341.326ZM335.566 35.698V34.698H334.566V35.698H335.566ZM335.566 38.578V39.578H336.566V38.578H335.566ZM334.144 38.578H333.144V39.578H334.144V38.578ZM334.144 32.818V31.818H333.144V32.818H334.144ZM335.566 32.818H336.566V31.818H335.566V32.818ZM335.566 34.258H334.566V35.258H335.566V34.258ZM339.886 34.258V35.258H340.886V34.258H339.886ZM339.886 32.818V31.818H338.886V32.818H339.886ZM341.326 32.818H342.326V31.818H341.326V32.818ZM339.886 40.018V39.018H335.566V40.018V41.018H339.886V40.018ZM335.566 40.018H336.566V38.578H335.566H334.566V40.018H335.566ZM335.566 38.578V39.578H339.886V38.578V37.578H335.566V38.578ZM339.886 38.578H338.886V40.018H339.886H340.886V38.578H339.886ZM341.326 38.578V37.578H339.886V38.578V39.578H341.326V38.578ZM339.886 38.578H340.886V37.138H339.886H338.886V38.578H339.886ZM339.886 37.138V38.138H341.326V37.138V36.138H339.886V37.138ZM341.326 37.138H340.326V38.578H341.326H342.326V37.138H341.326ZM339.886 32.818V31.818H335.566V32.818V33.818H339.886V32.818ZM335.566 32.818H336.566V31.378H335.566H334.566V32.818H335.566ZM335.566 31.378V32.378H339.886V31.378V30.378H335.566V31.378ZM339.886 31.378H338.886V32.818H339.886H340.886V31.378H339.886ZM341.326 35.698V34.698H335.566V35.698V36.698H341.326V35.698ZM335.566 35.698H334.566V38.578H335.566H336.566V35.698H335.566ZM335.566 38.578V37.578H334.144V38.578V39.578H335.566V38.578ZM334.144 38.578H335.144V32.818H334.144H333.144V38.578H334.144ZM334.144 32.818V33.818H335.566V32.818V31.818H334.144V32.818ZM335.566 32.818H334.566V34.258H335.566H336.566V32.818H335.566ZM335.566 34.258V35.258H339.886V34.258V33.258H335.566V34.258ZM339.886 34.258H340.886V32.818H339.886H338.886V34.258H339.886ZM339.886 32.818V33.818H341.326V32.818V31.818H339.886V32.818ZM341.326 32.818H340.326V35.698H341.326H342.326V32.818H341.326ZM343.144 35.23V34.23H342.144V35.23H343.144ZM350.326 35.23H351.326V34.23H350.326V35.23ZM350.326 36.652V37.652H351.326V36.652H350.326ZM343.144 36.652H342.144V37.652H343.144V36.652ZM343.144 35.23V36.23H350.326V35.23V34.23H343.144V35.23ZM350.326 35.23H349.326V36.652H350.326H351.326V35.23H350.326ZM350.326 36.652V35.652H343.144V36.652V37.652H350.326V36.652ZM343.144 36.652H344.144V35.23H343.144H342.144V36.652H343.144ZM353.549 32.818V31.818H352.549V32.818H353.549ZM353.549 38.578H352.549V39.578H353.549V38.578ZM357.869 38.578H358.869V37.578H357.869V38.578ZM357.869 40V41H358.869V40H357.869ZM353.549 40V39H352.549V40H353.549ZM353.549 42.88V43.88H354.549V42.88H353.549ZM352.127 42.88H351.127V43.88H352.127V42.88ZM352.127 31.378V30.378H351.127V31.378H352.127ZM357.869 31.378H358.869V30.378H357.869V31.378ZM357.869 32.818V33.818H358.869V32.818H357.869ZM359.309 38.578V39.578H360.309V38.578H359.309ZM357.869 38.578H356.869V39.578H357.869V38.578ZM357.869 32.818V31.818H356.869V32.818H357.869ZM359.309 32.818H360.309V31.818H359.309V32.818ZM353.549 32.818H352.549V38.578H353.549H354.549V32.818H353.549ZM353.549 38.578V39.578H357.869V38.578V37.578H353.549V38.578ZM357.869 38.578H356.869V40H357.869H358.869V38.578H357.869ZM357.869 40V39H353.549V40V41H357.869V40ZM353.549 40H352.549V42.88H353.549H354.549V40H353.549ZM353.549 42.88V41.88H352.127V42.88V43.88H353.549V42.88ZM352.127 42.88H353.127V31.378H352.127H351.127V42.88H352.127ZM352.127 31.378V32.378H357.869V31.378V30.378H352.127V31.378ZM357.869 31.378H356.869V32.818H357.869H358.869V31.378H357.869ZM357.869 32.818V31.818H353.549V32.818V33.818H357.869V32.818ZM359.309 38.578V37.578H357.869V38.578V39.578H359.309V38.578ZM357.869 38.578H358.869V32.818H357.869H356.869V38.578H357.869ZM357.869 32.818V33.818H359.309V32.818V31.818H357.869V32.818ZM359.309 32.818H358.309V38.578H359.309H360.309V32.818H359.309ZM361.127 31.36V30.36H360.127V31.36H361.127ZM363.989 31.36H364.989V30.36H363.989V31.36ZM363.989 32.818V33.818H364.989V32.818H363.989ZM362.549 32.818V31.818H361.549V32.818H362.549ZM362.549 40V41H363.549V40H362.549ZM361.127 40H360.127V41H361.127V40ZM361.127 31.36V32.36H363.989V31.36V30.36H361.127V31.36ZM363.989 31.36H362.989V32.818H363.989H364.989V31.36H363.989ZM363.989 32.818V31.818H362.549V32.818V33.818H363.989V32.818ZM362.549 32.818H361.549V40H362.549H363.549V32.818H362.549ZM362.549 40V39H361.127V40V41H362.549V40ZM361.127 40H362.127V31.36H361.127H360.127V40H361.127ZM371.544 40.018V41.018H372.544V40.018H371.544ZM367.224 40.018H366.224V41.018H367.224V40.018ZM367.224 38.578V37.578H366.224V38.578H367.224ZM371.544 38.578H372.544V37.578H371.544V38.578ZM367.224 38.578V39.578H368.224V38.578H367.224ZM365.802 38.578H364.802V39.578H365.802V38.578ZM365.802 32.818V31.818H364.802V32.818H365.802ZM367.224 32.818H368.224V31.818H367.224V32.818ZM371.544 32.818V33.818H372.544V32.818H371.544ZM367.224 32.818H366.224V33.818H367.224V32.818ZM367.224 31.378V30.378H366.224V31.378H367.224ZM371.544 31.378H372.544V30.378H371.544V31.378ZM372.984 38.578V39.578H373.984V38.578H372.984ZM371.544 38.578H370.544V39.578H371.544V38.578ZM371.544 32.818V31.818H370.544V32.818H371.544ZM372.984 32.818H373.984V31.818H372.984V32.818ZM371.544 40.018V39.018H367.224V40.018V41.018H371.544V40.018ZM367.224 40.018H368.224V38.578H367.224H366.224V40.018H367.224ZM367.224 38.578V39.578H371.544V38.578V37.578H367.224V38.578ZM371.544 38.578H370.544V40.018H371.544H372.544V38.578H371.544ZM367.224 38.578V37.578H365.802V38.578V39.578H367.224V38.578ZM365.802 38.578H366.802V32.818H365.802H364.802V38.578H365.802ZM365.802 32.818V33.818H367.224V32.818V31.818H365.802V32.818ZM367.224 32.818H366.224V38.578H367.224H368.224V32.818H367.224ZM371.544 32.818V31.818H367.224V32.818V33.818H371.544V32.818ZM367.224 32.818H368.224V31.378H367.224H366.224V32.818H367.224ZM367.224 31.378V32.378H371.544V31.378V30.378H367.224V31.378ZM371.544 31.378H370.544V32.818H371.544H372.544V31.378H371.544ZM372.984 38.578V37.578H371.544V38.578V39.578H372.984V38.578ZM371.544 38.578H372.544V32.818H371.544H370.544V38.578H371.544ZM371.544 32.818V33.818H372.984V32.818V31.818H371.544V32.818ZM372.984 32.818H371.984V38.578H372.984H373.984V32.818H372.984ZM376.224 42.88V43.88H377.224V42.88H376.224ZM374.802 42.88H373.802V43.88H374.802V42.88ZM374.802 31.378V30.378H373.802V31.378H374.802ZM376.224 31.378H377.224V30.378H376.224V31.378ZM376.224 28.498V29.498H377.224V28.498H376.224ZM374.802 28.498H373.802V29.498H374.802V28.498ZM374.802 27.058V26.058H373.802V27.058H374.802ZM376.224 27.058H377.224V26.058H376.224V27.058ZM376.224 42.88V41.88H374.802V42.88V43.88H376.224V42.88ZM374.802 42.88H375.802V31.378H374.802H373.802V42.88H374.802ZM374.802 31.378V32.378H376.224V31.378V30.378H374.802V31.378ZM376.224 31.378H375.224V42.88H376.224H377.224V31.378H376.224ZM376.224 28.498V27.498H374.802V28.498V29.498H376.224V28.498ZM374.802 28.498H375.802V27.058H374.802H373.802V28.498H374.802ZM374.802 27.058V28.058H376.224V27.058V26.058H374.802V27.058ZM376.224 27.058H375.224V28.498H376.224H377.224V27.058H376.224ZM383.779 40.018V41.018H384.779V40.018H383.779ZM379.459 40.018H378.459V41.018H379.459V40.018ZM379.459 38.578V37.578H378.459V38.578H379.459ZM383.779 38.578H384.779V37.578H383.779V38.578ZM385.219 38.578V39.578H386.219V38.578H385.219ZM383.779 38.578H382.779V39.578H383.779V38.578ZM383.779 37.138V36.138H382.779V37.138H383.779ZM385.219 37.138H386.219V36.138H385.219V37.138ZM383.779 32.818V33.818H384.779V32.818H383.779ZM379.459 32.818H378.459V33.818H379.459V32.818ZM379.459 31.378V30.378H378.459V31.378H379.459ZM383.779 31.378H384.779V30.378H383.779V31.378ZM385.219 35.698V36.698H386.219V35.698H385.219ZM379.459 35.698V34.698H378.459V35.698H379.459ZM379.459 38.578V39.578H380.459V38.578H379.459ZM378.037 38.578H377.037V39.578H378.037V38.578ZM378.037 32.818V31.818H377.037V32.818H378.037ZM379.459 32.818H380.459V31.818H379.459V32.818ZM379.459 34.258H378.459V35.258H379.459V34.258ZM383.779 34.258V35.258H384.779V34.258H383.779ZM383.779 32.818V31.818H382.779V32.818H383.779ZM385.219 32.818H386.219V31.818H385.219V32.818ZM383.779 40.018V39.018H379.459V40.018V41.018H383.779V40.018ZM379.459 40.018H380.459V38.578H379.459H378.459V40.018H379.459ZM379.459 38.578V39.578H383.779V38.578V37.578H379.459V38.578ZM383.779 38.578H382.779V40.018H383.779H384.779V38.578H383.779ZM385.219 38.578V37.578H383.779V38.578V39.578H385.219V38.578ZM383.779 38.578H384.779V37.138H383.779H382.779V38.578H383.779ZM383.779 37.138V38.138H385.219V37.138V36.138H383.779V37.138ZM385.219 37.138H384.219V38.578H385.219H386.219V37.138H385.219ZM383.779 32.818V31.818H379.459V32.818V33.818H383.779V32.818ZM379.459 32.818H380.459V31.378H379.459H378.459V32.818H379.459ZM379.459 31.378V32.378H383.779V31.378V30.378H379.459V31.378ZM383.779 31.378H382.779V32.818H383.779H384.779V31.378H383.779ZM385.219 35.698V34.698H379.459V35.698V36.698H385.219V35.698ZM379.459 35.698H378.459V38.578H379.459H380.459V35.698H379.459ZM379.459 38.578V37.578H378.037V38.578V39.578H379.459V38.578ZM378.037 38.578H379.037V32.818H378.037H377.037V38.578H378.037ZM378.037 32.818V33.818H379.459V32.818V31.818H378.037V32.818ZM379.459 32.818H378.459V34.258H379.459H380.459V32.818H379.459ZM379.459 34.258V35.258H383.779V34.258V33.258H379.459V34.258ZM383.779 34.258H384.779V32.818H383.779H382.779V34.258H383.779ZM383.779 32.818V33.818H385.219V32.818V31.818H383.779V32.818ZM385.219 32.818H384.219V35.698H385.219H386.219V32.818H385.219ZM394.219 38.578V39.578H395.219V38.578H394.219ZM392.779 38.578H391.779V39.578H392.779V38.578ZM392.779 37.138V36.138H391.779V37.138H392.779ZM394.219 37.138H395.219V36.138H394.219V37.138ZM388.459 38.578V39.578H389.459V38.578H388.459ZM387.037 38.578H386.037V39.578H387.037V38.578ZM387.037 32.818V31.818H386.037V32.818H387.037ZM388.459 32.818H389.459V31.818H388.459V32.818ZM392.779 40.018V41.018H393.779V40.018H392.779ZM388.459 40.018H387.459V41.018H388.459V40.018ZM388.459 38.578V37.578H387.459V38.578H388.459ZM392.779 38.578H393.779V37.578H392.779V38.578ZM392.779 32.818V33.818H393.779V32.818H392.779ZM388.459 32.818H387.459V33.818H388.459V32.818ZM388.459 31.378V30.378H387.459V31.378H388.459ZM392.779 31.378H393.779V30.378H392.779V31.378ZM394.219 34.258V35.258H395.219V34.258H394.219ZM392.779 34.258H391.779V35.258H392.779V34.258ZM392.779 32.818V31.818H391.779V32.818H392.779ZM394.219 32.818H395.219V31.818H394.219V32.818ZM394.219 38.578V37.578H392.779V38.578V39.578H394.219V38.578ZM392.779 38.578H393.779V37.138H392.779H391.779V38.578H392.779ZM392.779 37.138V38.138H394.219V37.138V36.138H392.779V37.138ZM394.219 37.138H393.219V38.578H394.219H395.219V37.138H394.219ZM388.459 38.578V37.578H387.037V38.578V39.578H388.459V38.578ZM387.037 38.578H388.037V32.818H387.037H386.037V38.578H387.037ZM387.037 32.818V33.818H388.459V32.818V31.818H387.037V32.818ZM388.459 32.818H387.459V38.578H388.459H389.459V32.818H388.459ZM392.779 40.018V39.018H388.459V40.018V41.018H392.779V40.018ZM388.459 40.018H389.459V38.578H388.459H387.459V40.018H388.459ZM388.459 38.578V39.578H392.779V38.578V37.578H388.459V38.578ZM392.779 38.578H391.779V40.018H392.779H393.779V38.578H392.779ZM392.779 32.818V31.818H388.459V32.818V33.818H392.779V32.818ZM388.459 32.818H389.459V31.378H388.459H387.459V32.818H388.459ZM388.459 31.378V32.378H392.779V31.378V30.378H388.459V31.378ZM392.779 31.378H391.779V32.818H392.779H393.779V31.378H392.779ZM394.219 34.258V33.258H392.779V34.258V35.258H394.219V34.258ZM392.779 34.258H393.779V32.818H392.779H391.779V34.258H392.779ZM392.779 32.818V33.818H394.219V32.818V31.818H392.779V32.818ZM394.219 32.818H393.219V34.258H394.219H395.219V32.818H394.219ZM398.899 32.818V33.818H399.899V32.818H398.899ZM397.459 32.818V31.818H396.459V32.818H397.459ZM397.459 38.578V39.578H398.459V38.578H397.459ZM396.037 38.578H395.037V39.578H396.037V38.578ZM396.037 28.498V27.498H395.037V28.498H396.037ZM397.459 28.498H398.459V27.498H397.459V28.498ZM397.459 31.378H396.459V32.378H397.459V31.378ZM398.899 31.378H399.899V30.378H398.899V31.378ZM398.899 40.018V41.018H399.899V40.018H398.899ZM397.459 40.018H396.459V41.018H397.459V40.018ZM397.459 38.578V37.578H396.459V38.578H397.459ZM398.899 38.578H399.899V37.578H398.899V38.578ZM398.899 32.818V31.818H397.459V32.818V33.818H398.899V32.818ZM397.459 32.818H396.459V38.578H397.459H398.459V32.818H397.459ZM397.459 38.578V37.578H396.037V38.578V39.578H397.459V38.578ZM396.037 38.578H397.037V28.498H396.037H395.037V38.578H396.037ZM396.037 28.498V29.498H397.459V28.498V27.498H396.037V28.498ZM397.459 28.498H396.459V31.378H397.459H398.459V28.498H397.459ZM397.459 31.378V32.378H398.899V31.378V30.378H397.459V31.378ZM398.899 31.378H397.899V32.818H398.899H399.899V31.378H398.899ZM398.899 40.018V39.018H397.459V40.018V41.018H398.899V40.018ZM397.459 40.018H398.459V38.578H397.459H396.459V40.018H397.459ZM397.459 38.578V39.578H398.899V38.578V37.578H397.459V38.578ZM398.899 38.578H397.899V40.018H398.899H399.899V38.578H398.899ZM406.455 38.578V39.578H407.455V38.578H406.455ZM405.033 38.578H404.033V39.578H405.033V38.578ZM405.033 37.138V36.138H404.033V37.138H405.033ZM406.455 37.138H407.455V36.138H406.455V37.138ZM405.015 37.138V38.138H406.015V37.138H405.015ZM403.575 37.138H402.575V38.138H403.575V37.138ZM403.575 35.698V34.698H402.575V35.698H403.575ZM405.015 35.698H406.015V34.698H405.015V35.698ZM402.135 38.578V39.578H403.135V38.578H402.135ZM400.713 38.578H399.713V39.578H400.713V38.578ZM400.713 37.138V36.138H399.713V37.138H400.713ZM402.135 37.138H403.135V36.138H402.135V37.138ZM405.033 40.018V41.018H406.033V40.018H405.033ZM402.135 40.018H401.135V41.018H402.135V40.018ZM402.135 38.578V37.578H401.135V38.578H402.135ZM405.033 38.578H406.033V37.578H405.033V38.578ZM403.575 35.698V36.698H404.575V35.698H403.575ZM402.135 35.698H401.135V36.698H402.135V35.698ZM402.135 34.258V33.258H401.135V34.258H402.135ZM403.575 34.258H404.575V33.258H403.575V34.258ZM406.455 34.258V35.258H407.455V34.258H406.455ZM405.033 34.258H404.033V35.258H405.033V34.258ZM405.033 32.818V31.818H404.033V32.818H405.033ZM406.455 32.818H407.455V31.818H406.455V32.818ZM405.033 32.818V33.818H406.033V32.818H405.033ZM402.135 32.818H401.135V33.818H402.135V32.818ZM402.135 31.378V30.378H401.135V31.378H402.135ZM405.033 31.378H406.033V30.378H405.033V31.378ZM402.135 34.258V35.258H403.135V34.258H402.135ZM400.713 34.258H399.713V35.258H400.713V34.258ZM400.713 32.818V31.818H399.713V32.818H400.713ZM402.135 32.818H403.135V31.818H402.135V32.818ZM406.455 38.578V37.578H405.033V38.578V39.578H406.455V38.578ZM405.033 38.578H406.033V37.138H405.033H404.033V38.578H405.033ZM405.033 37.138V38.138H406.455V37.138V36.138H405.033V37.138ZM406.455 37.138H405.455V38.578H406.455H407.455V37.138H406.455ZM405.015 37.138V36.138H403.575V37.138V38.138H405.015V37.138ZM403.575 37.138H404.575V35.698H403.575H402.575V37.138H403.575ZM403.575 35.698V36.698H405.015V35.698V34.698H403.575V35.698ZM405.015 35.698H404.015V37.138H405.015H406.015V35.698H405.015ZM402.135 38.578V37.578H400.713V38.578V39.578H402.135V38.578ZM400.713 38.578H401.713V37.138H400.713H399.713V38.578H400.713ZM400.713 37.138V38.138H402.135V37.138V36.138H400.713V37.138ZM402.135 37.138H401.135V38.578H402.135H403.135V37.138H402.135ZM405.033 40.018V39.018H402.135V40.018V41.018H405.033V40.018ZM402.135 40.018H403.135V38.578H402.135H401.135V40.018H402.135ZM402.135 38.578V39.578H405.033V38.578V37.578H402.135V38.578ZM405.033 38.578H404.033V40.018H405.033H406.033V38.578H405.033ZM403.575 35.698V34.698H402.135V35.698V36.698H403.575V35.698ZM402.135 35.698H403.135V34.258H402.135H401.135V35.698H402.135ZM402.135 34.258V35.258H403.575V34.258V33.258H402.135V34.258ZM403.575 34.258H402.575V35.698H403.575H404.575V34.258H403.575ZM406.455 34.258V33.258H405.033V34.258V35.258H406.455V34.258ZM405.033 34.258H406.033V32.818H405.033H404.033V34.258H405.033ZM405.033 32.818V33.818H406.455V32.818V31.818H405.033V32.818ZM406.455 32.818H405.455V34.258H406.455H407.455V32.818H406.455ZM405.033 32.818V31.818H402.135V32.818V33.818H405.033V32.818ZM402.135 32.818H403.135V31.378H402.135H401.135V32.818H402.135ZM402.135 31.378V32.378H405.033V31.378V30.378H402.135V31.378ZM405.033 31.378H404.033V32.818H405.033H406.033V31.378H405.033ZM402.135 34.258V33.258H400.713V34.258V35.258H402.135V34.258ZM400.713 34.258H401.713V32.818H400.713H399.713V34.258H400.713ZM400.713 32.818V33.818H402.135V32.818V31.818H400.713V32.818ZM402.135 32.818H401.135V34.258H402.135H403.135V32.818H402.135Z" fill="#4B4B4B" mask="url(#path-3-outside-1_4153_2892)"/>
</svg>
